<svg id="Ebene_1" data-name="Ebene 1" xmlns="http://www.w3.org/2000/svg" xmlns:xlink="http://www.w3.org/1999/xlink" viewBox="0 0 620 70"><defs><style>.cls-1,.cls-6,.cls-7,.cls-8{fill:none;}.cls-2{clip-path:url(#clip-path);}.cls-3,.cls-4,.cls-5{font-size:5px;font-family:RobotoMono-Bold, Roboto Mono;font-weight:700;}.cls-3{fill:#4ca2da;}.cls-4{fill:#f7a42b;}.cls-5{fill:#e82f7a;}.cls-6{stroke:#f7a42b;}.cls-6,.cls-7,.cls-8{stroke-linecap:round;stroke-linejoin:round;}.cls-7{stroke:#e82f7a;}.cls-8{stroke:#4ca2da;}</style><clipPath id="clip-path"><rect class="cls-1" width="620" height="70"/></clipPath></defs><g class="cls-2"><path d="M11.16,37.47l1.5-4.26H14v8.53H13V38.33L13,34.77l-1.58,4.59h-.62L9.4,34.89l.08,3.44v3.41H8.43V33.21H9.77Z"/><path d="M19.85,41.43a2.32,2.32,0,0,1-.06-.38,2.89,2.89,0,0,1-.37.31,2.65,2.65,0,0,1-.44.25,2.28,2.28,0,0,1-.52.18,2.74,2.74,0,0,1-.59.06,2.63,2.63,0,0,1-.91-.14,2.12,2.12,0,0,1-.69-.4,1.72,1.72,0,0,1-.44-.59,1.81,1.81,0,0,1-.15-.74,1.88,1.88,0,0,1,.21-.91,1.68,1.68,0,0,1,.58-.66,3,3,0,0,1,.92-.39,5.52,5.52,0,0,1,1.2-.13h1.18V37.4a1.21,1.21,0,0,0-.1-.52,1.14,1.14,0,0,0-.3-.39,1.41,1.41,0,0,0-.47-.25,2.08,2.08,0,0,0-.63-.09,1.7,1.7,0,0,0-.57.09,1.23,1.23,0,0,0-.43.21,1.06,1.06,0,0,0-.28.32.86.86,0,0,0-.09.39H15.81a1.49,1.49,0,0,1,.17-.68,2,2,0,0,1,.51-.61,2.64,2.64,0,0,1,.78-.43,3.19,3.19,0,0,1,1.06-.16,3.56,3.56,0,0,1,1,.13,2.36,2.36,0,0,1,.81.4,1.92,1.92,0,0,1,.52.67,2.06,2.06,0,0,1,.2.93v2.94a4.08,4.08,0,0,0,.06.68,2.46,2.46,0,0,0,.16.61v.1H20A1.13,1.13,0,0,1,19.85,41.43Zm-1.23-.6a2.38,2.38,0,0,0,.51-.22,1.72,1.72,0,0,0,.39-.31,1.45,1.45,0,0,0,.25-.36V38.66h-1a4.14,4.14,0,0,0-1,.1,1.55,1.55,0,0,0-.66.29,1,1,0,0,0-.27.34,1,1,0,0,0-.09.44,1.22,1.22,0,0,0,.08.43.81.81,0,0,0,.24.34,1.11,1.11,0,0,0,.4.23,1.82,1.82,0,0,0,.55.08A2.21,2.21,0,0,0,18.62,40.83Z"/><path d="M23,37.21a2.86,2.86,0,0,1,.5-1,2.25,2.25,0,0,1,.8-.67,2.27,2.27,0,0,1,1.06-.24,2.63,2.63,0,0,1,.7.09,1.85,1.85,0,0,1,.57.26,1.05,1.05,0,0,1,.27.2l.24.26,0-.69h1v6.2a3,3,0,0,1-.19,1.12,2.32,2.32,0,0,1-1.4,1.34,3.41,3.41,0,0,1-1.09.17,4.13,4.13,0,0,1-.56,0,3.11,3.11,0,0,1-.64-.19,2.71,2.71,0,0,1-.63-.33,2.33,2.33,0,0,1-.52-.52l.56-.65a3.06,3.06,0,0,0,.41.4,2,2,0,0,0,.43.27,1.5,1.5,0,0,0,.44.14,2,2,0,0,0,.43.05,2.19,2.19,0,0,0,.7-.11,1.69,1.69,0,0,0,.53-.33,1.49,1.49,0,0,0,.33-.53,2,2,0,0,0,.12-.72v-.55a3.19,3.19,0,0,1-.26.26,1.57,1.57,0,0,1-.3.2,2.17,2.17,0,0,1-.54.21,2.7,2.7,0,0,1-.65.07,2.24,2.24,0,0,1-1-.24,2.38,2.38,0,0,1-.8-.68,3.47,3.47,0,0,1-.5-1,4.38,4.38,0,0,1-.18-1.27v-.13A4.49,4.49,0,0,1,23,37.21Zm1,2.31a2.16,2.16,0,0,0,.3.73,1.46,1.46,0,0,0,1.3.68,2,2,0,0,0,.51-.06,1.72,1.72,0,0,0,.41-.19,1.76,1.76,0,0,0,.31-.3,1.6,1.6,0,0,0,.25-.37V37.1a1.78,1.78,0,0,0-.25-.36,1.47,1.47,0,0,0-.32-.29,1.32,1.32,0,0,0-.4-.18,1.74,1.74,0,0,0-1.28.12,1.58,1.58,0,0,0-.53.5,2.22,2.22,0,0,0-.3.74,3.65,3.65,0,0,0-.1.88v.13A3.6,3.6,0,0,0,24,39.52Z"/><path d="M30.19,35.4h1l.07.93a3.65,3.65,0,0,1,.31-.36,2,2,0,0,1,.36-.29,2.14,2.14,0,0,1,.61-.29,2.28,2.28,0,0,1,.7-.11,2.83,2.83,0,0,1,.9.14,1.64,1.64,0,0,1,.7.44,2,2,0,0,1,.44.76,3.53,3.53,0,0,1,.16,1.09v4H34.32v-4a2.48,2.48,0,0,0-.09-.72,1.16,1.16,0,0,0-.28-.47,1,1,0,0,0-.45-.27,2.25,2.25,0,0,0-.61-.08,1.69,1.69,0,0,0-.56.09,1.59,1.59,0,0,0-.8.53,1.64,1.64,0,0,0-.26.37v4.55H30.19Z"/><path d="M39,41.63A3,3,0,0,1,38,41a3.09,3.09,0,0,1-.62-1,3.23,3.23,0,0,1-.22-1.22v-.25a3.68,3.68,0,0,1,.24-1.37,3.37,3.37,0,0,1,.66-1A2.88,2.88,0,0,1,39,35.5a2.66,2.66,0,0,1,1.07-.22,2.78,2.78,0,0,1,1.19.24,2.34,2.34,0,0,1,.86.65,2.89,2.89,0,0,1,.5,1,4.07,4.07,0,0,1,.17,1.23v.49H38.24v0a2.68,2.68,0,0,0,.19.81,1.81,1.81,0,0,0,.39.62,1.76,1.76,0,0,0,.62.46,2,2,0,0,0,.81.16A2.14,2.14,0,0,0,42,40.11l.66.52a2.84,2.84,0,0,1-.95.85,3,3,0,0,1-1.55.37A3.24,3.24,0,0,1,39,41.63Zm.47-5.34a1.58,1.58,0,0,0-.53.35,2.16,2.16,0,0,0-.4.57,2.86,2.86,0,0,0-.22.78h3.41v-.06a2.2,2.2,0,0,0-.11-.63,2.14,2.14,0,0,0-.31-.58,1.52,1.52,0,0,0-1.22-.55A1.59,1.59,0,0,0,39.43,36.29Z"/><path d="M47.15,35.4h2.42v.84H47.15v3.44a1.72,1.72,0,0,0,.1.61.89.89,0,0,0,.26.38.85.85,0,0,0,.37.21,1.75,1.75,0,0,0,.46,0,2.23,2.23,0,0,0,.36,0l.37,0,.33-.06.26,0,.15.76a1.26,1.26,0,0,1-.33.15l-.42.1a3.61,3.61,0,0,1-.49.07,4.18,4.18,0,0,1-.5,0,2.52,2.52,0,0,1-.79-.12,1.61,1.61,0,0,1-.64-.38,1.67,1.67,0,0,1-.42-.67,3,3,0,0,1-.16-1V36.24H44.4V35.4h1.66V33.86h1.09Z"/><path d="M70.5,35.4h1.27l-2.36,3.13,2.43,3.21H70.58l-1.75-2.42-1.75,2.42H65.81l2.43-3.21L65.88,35.4h1.25l1.68,2.35Z"/><path d="M75.78,35.31a.94.94,0,0,1,1.28,0,.83.83,0,0,1,.22.59.79.79,0,0,1-.22.58,1,1,0,0,1-1.28,0,.84.84,0,0,1-.21-.58A.87.87,0,0,1,75.78,35.31Zm0,5.13a.8.8,0,0,1,.64-.24.79.79,0,0,1,.86.83.79.79,0,0,1-.22.58,1,1,0,0,1-1.28,0,.84.84,0,0,1-.21-.58A.89.89,0,0,1,75.78,40.44Z"/><path d="M95.25,38.45v-.89h4.48v.89Z"/><path d="M104.62,41.74V34.59l-2.23.85v-1l3.23-1.24h.09v8.53Z"/><path d="M114.56,39.92A2.87,2.87,0,0,1,114,41a2.31,2.31,0,0,1-.86.65,3.19,3.19,0,0,1-2.33,0A2.08,2.08,0,0,1,110,41a3,3,0,0,1-.55-1.06,5.25,5.25,0,0,1-.19-1.45v-2a5.25,5.25,0,0,1,.19-1.45A3,3,0,0,1,110,34a2.23,2.23,0,0,1,.86-.66,3.07,3.07,0,0,1,2.33,0A2.34,2.34,0,0,1,114,34a2.87,2.87,0,0,1,.54,1.06,4.9,4.9,0,0,1,.19,1.45v2A4.9,4.9,0,0,1,114.56,39.92Zm-.92-4.21a3.77,3.77,0,0,0-.17-.75,1.45,1.45,0,0,0-.33-.54,1.23,1.23,0,0,0-.49-.34A1.92,1.92,0,0,0,112,34a1.83,1.83,0,0,0-.68.12,1.37,1.37,0,0,0-.5.35,1.91,1.91,0,0,0-.37.74,4.24,4.24,0,0,0-.12,1.06v2Zm0,1.79v-.75l-3.32,2.53a3.13,3.13,0,0,0,.19.76,1.69,1.69,0,0,0,.35.53,1.31,1.31,0,0,0,.48.3A1.81,1.81,0,0,0,112,41a1.69,1.69,0,0,0,.66-.12,1.34,1.34,0,0,0,.49-.32,1.68,1.68,0,0,0,.39-.75,3.92,3.92,0,0,0,.13-1.09Z"/><path d="M118.69,40.44a1,1,0,0,1,1.28,0,.83.83,0,0,1,.22.59.79.79,0,0,1-.22.58,1,1,0,0,1-1.28,0,.84.84,0,0,1-.21-.58A.89.89,0,0,1,118.69,40.44Z"/><path d="M127.79,34.17h-.09a3.55,3.55,0,0,0-1.31.22,2.76,2.76,0,0,0-.9.59,2.59,2.59,0,0,0-.55.92,3.79,3.79,0,0,0-.23,1.1,2.26,2.26,0,0,1,.35-.34,3.12,3.12,0,0,1,.43-.27,2.13,2.13,0,0,1,.5-.18,2,2,0,0,1,.56-.07,2.35,2.35,0,0,1,1.1.24,2.29,2.29,0,0,1,.76.65,2.52,2.52,0,0,1,.44.9,3.54,3.54,0,0,1,.14,1,3.77,3.77,0,0,1-.16,1.13,2.66,2.66,0,0,1-.51.92,2.46,2.46,0,0,1-.82.63,2.78,2.78,0,0,1-1.15.22,2.35,2.35,0,0,1-1.15-.26,2.45,2.45,0,0,1-.84-.68,2.91,2.91,0,0,1-.57-1.09,4.06,4.06,0,0,1-.19-1.24v-.5a9.21,9.21,0,0,1,.25-2.1,3.71,3.71,0,0,1,1-1.77,3.1,3.1,0,0,1,1.22-.75,4.91,4.91,0,0,1,1.64-.26h.09Zm-2,3a1.83,1.83,0,0,0-.48.25,1.88,1.88,0,0,0-.66.87v.36a3.37,3.37,0,0,0,.13,1,2.23,2.23,0,0,0,.37.74,1.47,1.47,0,0,0,.52.45,1.28,1.28,0,0,0,.63.16,1.44,1.44,0,0,0,.67-.15,1.41,1.41,0,0,0,.5-.4,1.71,1.71,0,0,0,.3-.62,2.77,2.77,0,0,0,.11-.78,2.52,2.52,0,0,0-.1-.73,2,2,0,0,0-.28-.63,1.47,1.47,0,0,0-.49-.44,1.38,1.38,0,0,0-.69-.17A1.6,1.6,0,0,0,125.84,37.13Z"/><path d="M133.53,40.58a2.21,2.21,0,0,0,.88-.55,2.43,2.43,0,0,0,.55-1,5,5,0,0,0,.17-1h0a2.5,2.5,0,0,1-.32.33,2.9,2.9,0,0,1-.41.27,2.82,2.82,0,0,1-.51.19,2.93,2.93,0,0,1-.61.06,2.22,2.22,0,0,1-1.09-.25,2.18,2.18,0,0,1-.76-.65,2.65,2.65,0,0,1-.44-.91,4,4,0,0,1-.14-1A3.88,3.88,0,0,1,131,34.9a2.74,2.74,0,0,1,.5-.94,2.34,2.34,0,0,1,.82-.63,2.63,2.63,0,0,1,1.15-.24,2.52,2.52,0,0,1,1.14.24,2.45,2.45,0,0,1,.81.64,3.06,3.06,0,0,1,.58,1.17,5.26,5.26,0,0,1,.2,1.4v.39a9.61,9.61,0,0,1-.21,2,3.76,3.76,0,0,1-.91,1.77,2.79,2.79,0,0,1-1.15.76,4.73,4.73,0,0,1-1.79.29h-.11v-1h.11A4.09,4.09,0,0,0,133.53,40.58ZM134,37.9a1.77,1.77,0,0,0,.49-.26,2.4,2.4,0,0,0,.39-.39,2.19,2.19,0,0,0,.27-.5v-.36a3.48,3.48,0,0,0-.13-1,2.55,2.55,0,0,0-.36-.76,1.51,1.51,0,0,0-.52-.46,1.29,1.29,0,0,0-.63-.17,1.48,1.48,0,0,0-.68.15,1.64,1.64,0,0,0-.49.42,2,2,0,0,0-.31.64,2.78,2.78,0,0,0-.1.78,3.06,3.06,0,0,0,.09.74,2,2,0,0,0,.29.64,1.35,1.35,0,0,0,.47.45,1.31,1.31,0,0,0,.69.18A1.6,1.6,0,0,0,134,37.9Z"/><path d="M152.75,44.26l-.31-.06.18-.88.29,0h.22a.73.73,0,0,0,.41-.12,1.87,1.87,0,0,0,.33-.3,2.71,2.71,0,0,0,.24-.35c.07-.12.12-.22.16-.3l.44-.84-2.73-6h1.21l1.74,4.09.28.76.3-.74,1.64-4.11h1.21l-3.22,7.32a5.52,5.52,0,0,1-.28.52,3.35,3.35,0,0,1-.42.51,2.68,2.68,0,0,1-.58.39,1.62,1.62,0,0,1-.75.16A1.71,1.71,0,0,1,152.75,44.26Z"/><path d="M162.19,35.31a.94.94,0,0,1,1.28,0,.83.83,0,0,1,.22.59.79.79,0,0,1-.22.58,1,1,0,0,1-1.28,0,.84.84,0,0,1-.21-.58A.87.87,0,0,1,162.19,35.31Zm0,5.13a.8.8,0,0,1,.64-.24.79.79,0,0,1,.86.83.79.79,0,0,1-.22.58,1,1,0,0,1-1.28,0A.84.84,0,0,1,162,41,.89.89,0,0,1,162.19,40.44Z"/><path d="M181.66,38.45v-.89h4.48v.89Z"/><path d="M188.24,41.74V41l2.8-3.11c.25-.27.46-.52.63-.74a5.15,5.15,0,0,0,.4-.59,2.53,2.53,0,0,0,.22-.52,2.07,2.07,0,0,0,.06-.5,1.63,1.63,0,0,0-.1-.59,1.44,1.44,0,0,0-.3-.49,1.56,1.56,0,0,0-.47-.32,1.61,1.61,0,0,0-.63-.12,2.11,2.11,0,0,0-.75.12,1.33,1.33,0,0,0-.51.35,1.43,1.43,0,0,0-.32.55,2.28,2.28,0,0,0-.1.72h-1.09a2.68,2.68,0,0,1,.19-1,2.29,2.29,0,0,1,.54-.83,2.53,2.53,0,0,1,.87-.57,3.35,3.35,0,0,1,2.25,0,2.39,2.39,0,0,1,.82.49,2.17,2.17,0,0,1,.51.75,2.47,2.47,0,0,1,.18,1,2.19,2.19,0,0,1-.13.75,3.7,3.7,0,0,1-.34.73,5,5,0,0,1-.52.72c-.19.24-.39.47-.61.71l-2.29,2.48h4.28v.89Z"/><path d="M197.9,40.44a.8.8,0,0,1,.64-.24.79.79,0,0,1,.86.83.79.79,0,0,1-.22.58,1,1,0,0,1-1.28,0,.84.84,0,0,1-.21-.58A.89.89,0,0,1,197.9,40.44Z"/><path d="M207,34.17h-.09a3.64,3.64,0,0,0-1.32.22,2.71,2.71,0,0,0-.89.59,2.77,2.77,0,0,0-.56.92,4.13,4.13,0,0,0-.22,1.1,2.26,2.26,0,0,1,.35-.34,3.12,3.12,0,0,1,.43-.27,2.13,2.13,0,0,1,.5-.18,2,2,0,0,1,.56-.07,2.38,2.38,0,0,1,1.1.24,2.29,2.29,0,0,1,.76.65,2.52,2.52,0,0,1,.44.9,3.92,3.92,0,0,1,.14,1,3.47,3.47,0,0,1-.17,1.13,2.48,2.48,0,0,1-1.33,1.55,2.73,2.73,0,0,1-1.14.22,2.42,2.42,0,0,1-1.16-.26,2.51,2.51,0,0,1-.83-.68,2.91,2.91,0,0,1-.57-1.09,4.06,4.06,0,0,1-.19-1.24v-.5a8.68,8.68,0,0,1,.25-2.1,3.71,3.71,0,0,1,1-1.77,3.1,3.1,0,0,1,1.22-.75,4.91,4.91,0,0,1,1.64-.26H207Zm-1.95,3a1.83,1.83,0,0,0-.48.25,1.88,1.88,0,0,0-.66.87v.36a3.37,3.37,0,0,0,.13,1,2.43,2.43,0,0,0,.36.74,1.59,1.59,0,0,0,.53.45,1.28,1.28,0,0,0,.63.16,1.44,1.44,0,0,0,.67-.15,1.5,1.5,0,0,0,.5-.4,1.88,1.88,0,0,0,.3-.62,2.78,2.78,0,0,0,.1-.78,2.92,2.92,0,0,0-.09-.73,1.82,1.82,0,0,0-.29-.63,1.44,1.44,0,0,0-.48-.44,1.41,1.41,0,0,0-.69-.17A1.6,1.6,0,0,0,205.05,37.13Z"/><path d="M212.74,40.58a2.28,2.28,0,0,0,.88-.55,2.43,2.43,0,0,0,.55-1,5,5,0,0,0,.17-1h0a2.57,2.57,0,0,1-.33.33,2.08,2.08,0,0,1-.41.27,2.47,2.47,0,0,1-.5.19,2.93,2.93,0,0,1-.61.06,2.22,2.22,0,0,1-1.85-.9,2.65,2.65,0,0,1-.44-.91,4,4,0,0,1-.14-1,3.58,3.58,0,0,1,.17-1.14,2.58,2.58,0,0,1,.5-.94,2.34,2.34,0,0,1,.82-.63,2.6,2.6,0,0,1,1.15-.24,2.52,2.52,0,0,1,1.14.24,2.56,2.56,0,0,1,.81.64,3.21,3.21,0,0,1,.58,1.17,5.26,5.26,0,0,1,.2,1.4v.39a9,9,0,0,1-.22,2,3.74,3.74,0,0,1-.9,1.77,2.79,2.79,0,0,1-1.15.76,4.76,4.76,0,0,1-1.79.29h-.11v-1h.11A4.13,4.13,0,0,0,212.74,40.58Zm.46-2.68a1.77,1.77,0,0,0,.49-.26,2.4,2.4,0,0,0,.39-.39,2.19,2.19,0,0,0,.27-.5v-.36a3.87,3.87,0,0,0-.13-1,2.55,2.55,0,0,0-.36-.76,1.6,1.6,0,0,0-.52-.46,1.29,1.29,0,0,0-.63-.17,1.48,1.48,0,0,0-.68.15,1.52,1.52,0,0,0-.49.42,1.82,1.82,0,0,0-.31.64,2.77,2.77,0,0,0-.11.78,3.07,3.07,0,0,0,.1.74,2,2,0,0,0,.29.64,1.35,1.35,0,0,0,.47.45,1.29,1.29,0,0,0,.69.18A1.6,1.6,0,0,0,213.2,37.9Z"/><path d="M237.14,40.85v.89h-5.42v-.8l3.79-4.65h-3.73V35.4h5.15v.77l-3.82,4.68Z"/><path d="M241.4,35.31a.94.94,0,0,1,1.28,0,.88.88,0,0,1,.22.59.83.83,0,0,1-.22.58.84.84,0,0,1-.64.24.82.82,0,0,1-.64-.24.84.84,0,0,1-.21-.58A.87.87,0,0,1,241.4,35.31Zm0,5.13a.8.8,0,0,1,.64-.24.83.83,0,0,1,.64.24.88.88,0,0,1,.22.59.83.83,0,0,1-.22.58.84.84,0,0,1-.64.24.82.82,0,0,1-.64-.24.84.84,0,0,1-.21-.58A.89.89,0,0,1,241.4,40.44Z"/><path d="M260.87,38.45v-.89h4.48v.89Z"/><path d="M273.39,38.87v.89H272.2v2h-1.08v-2h-3.89v-.64l3.82-5.91h1.15v5.66Zm-2.27,0V34.65l-.18.33-2.51,3.89Z"/><path d="M274.65,41.74V41l2.8-3.11c.25-.27.46-.52.63-.74a5.15,5.15,0,0,0,.4-.59,2.53,2.53,0,0,0,.22-.52,2.07,2.07,0,0,0,.06-.5,1.63,1.63,0,0,0-.1-.59,1.44,1.44,0,0,0-.3-.49,1.49,1.49,0,0,0-.48-.32,1.54,1.54,0,0,0-.63-.12,2.09,2.09,0,0,0-.74.12,1.26,1.26,0,0,0-.51.35,1.31,1.31,0,0,0-.32.55,2.28,2.28,0,0,0-.1.72h-1.09a2.68,2.68,0,0,1,.19-1,2.29,2.29,0,0,1,.54-.83,2.53,2.53,0,0,1,.87-.57,3,3,0,0,1,1.16-.21,3.08,3.08,0,0,1,1.09.18,2.39,2.39,0,0,1,.82.49,2.17,2.17,0,0,1,.51.75,2.47,2.47,0,0,1,.18,1,2.19,2.19,0,0,1-.13.75,3.7,3.7,0,0,1-.34.73,5,5,0,0,1-.52.72c-.19.24-.39.47-.61.71L276,40.85h4.28v.89Z"/><path d="M284.31,40.44a.8.8,0,0,1,.64-.24.79.79,0,0,1,.86.83.79.79,0,0,1-.22.58,1,1,0,0,1-1.28,0,.84.84,0,0,1-.21-.58A.89.89,0,0,1,284.31,40.44Z"/><path d="M294.58,39.92A2.87,2.87,0,0,1,294,41a2.31,2.31,0,0,1-.86.65,3.19,3.19,0,0,1-2.33,0A2.08,2.08,0,0,1,290,41a3,3,0,0,1-.55-1.06,5.25,5.25,0,0,1-.19-1.45v-2a5.25,5.25,0,0,1,.19-1.45A3,3,0,0,1,290,34a2.23,2.23,0,0,1,.86-.66,3.07,3.07,0,0,1,2.33,0A2.34,2.34,0,0,1,294,34a2.87,2.87,0,0,1,.54,1.06,4.9,4.9,0,0,1,.19,1.45v2A4.9,4.9,0,0,1,294.58,39.92Zm-.92-4.21a3.77,3.77,0,0,0-.17-.75,1.45,1.45,0,0,0-.33-.54,1.23,1.23,0,0,0-.49-.34A1.92,1.92,0,0,0,292,34a1.83,1.83,0,0,0-.68.12,1.37,1.37,0,0,0-.5.35,1.91,1.91,0,0,0-.37.74,4.24,4.24,0,0,0-.12,1.06v2Zm0,1.79v-.75l-3.32,2.53a3.13,3.13,0,0,0,.19.76,1.69,1.69,0,0,0,.35.53,1.31,1.31,0,0,0,.48.3A1.81,1.81,0,0,0,292,41a1.69,1.69,0,0,0,.66-.12,1.34,1.34,0,0,0,.49-.32,1.68,1.68,0,0,0,.39-.75,3.92,3.92,0,0,0,.13-1.09Z"/><path d="M300.61,34.17h-.09a3.64,3.64,0,0,0-1.32.22,2.71,2.71,0,0,0-.89.59,2.77,2.77,0,0,0-.56.92,4.13,4.13,0,0,0-.22,1.1,2.26,2.26,0,0,1,.35-.34,3.12,3.12,0,0,1,.43-.27,2.13,2.13,0,0,1,.5-.18,2,2,0,0,1,.56-.07,2.38,2.38,0,0,1,1.1.24,2.29,2.29,0,0,1,.76.65,2.52,2.52,0,0,1,.44.9,3.92,3.92,0,0,1,.14,1,3.47,3.47,0,0,1-.17,1.13,2.48,2.48,0,0,1-1.33,1.55,2.73,2.73,0,0,1-1.14.22,2.42,2.42,0,0,1-1.16-.26,2.51,2.51,0,0,1-.83-.68,2.91,2.91,0,0,1-.57-1.09,4.06,4.06,0,0,1-.19-1.24v-.5a8.68,8.68,0,0,1,.25-2.1,3.71,3.71,0,0,1,1-1.77,3.1,3.1,0,0,1,1.22-.75,4.91,4.91,0,0,1,1.64-.26h.09Zm-1.95,3a1.83,1.83,0,0,0-.48.25,1.88,1.88,0,0,0-.66.87v.36a3.37,3.37,0,0,0,.13,1,2.43,2.43,0,0,0,.36.74,1.59,1.59,0,0,0,.53.45,1.28,1.28,0,0,0,.63.16,1.44,1.44,0,0,0,.67-.15,1.5,1.5,0,0,0,.5-.4,1.88,1.88,0,0,0,.3-.62,2.77,2.77,0,0,0,.11-.78,2.92,2.92,0,0,0-.1-.73,1.82,1.82,0,0,0-.29-.63,1.35,1.35,0,0,0-.48-.44,1.41,1.41,0,0,0-.69-.17A1.6,1.6,0,0,0,298.66,37.13Z"/><text class="cls-3" transform="translate(13.75 23.01)">lineHeader</text><text class="cls-4" transform="translate(56.25 23.01)">dataName</text><text class="cls-4" transform="translate(142.48 23.01)">dataName</text><text class="cls-4" transform="translate(221.76 23.01)">dataName</text><text class="cls-5" transform="translate(103.62 23.01)">lineData</text><text class="cls-5" transform="translate(186.05 23.01)">lineData</text><text class="cls-5" transform="translate(268.42 23.01)">lineData</text><polyline class="cls-6" points="63.2 30.75 63.2 25.77 74.2 25.77 74.2 30.75"/><polyline class="cls-6" points="149.43 30.75 149.43 25.77 160.43 25.77 160.43 30.75"/><polyline class="cls-6" points="228.71 30.75 228.71 25.77 239.7 25.77 239.7 30.75"/><polyline class="cls-7" points="258.84 30.75 258.84 25.77 303.2 25.77 303.2 30.75"/><polyline class="cls-7" points="180.39 30.75 180.39 25.77 216.91 25.77 216.91 30.75"/><polyline class="cls-7" points="93.71 30.75 93.71 25.77 138.75 25.77 138.75 30.75"/><polyline class="cls-8" points="7.56 30.75 7.56 25.77 50.97 25.77 50.97 30.75"/></g></svg>