<svg id="Ebene_1" data-name="Ebene 1" xmlns="http://www.w3.org/2000/svg" xmlns:xlink="http://www.w3.org/1999/xlink" viewBox="0 0 620 70"><defs><style>.cls-1,.cls-6,.cls-7,.cls-8{fill:none;}.cls-2{clip-path:url(#clip-path);}.cls-3,.cls-4,.cls-5{font-size:5px;font-family:RobotoMono-Bold, Roboto Mono;font-weight:700;}.cls-3{fill:#4ca2da;}.cls-4{fill:#f7a42b;}.cls-5{fill:#e82f7a;}.cls-6{stroke:#f7a42b;}.cls-6,.cls-7,.cls-8{stroke-linecap:round;stroke-linejoin:round;}.cls-7{stroke:#e82f7a;}.cls-8{stroke:#4ca2da;}</style><clipPath id="clip-path"><rect class="cls-1" width="620" height="70"/></clipPath></defs><g class="cls-2"><path d="M13.74,33.45v.95H11.69v6.65h2.05V42H8.58v-.94h2V34.4h-2v-.95Z"/><path d="M18.36,37.72l1.5-4.27h1.35V42H20.15V38.58L20.24,35l-1.57,4.59H18L16.6,35.14l.08,3.44V42h-1V33.45H17Z"/><path d="M28.35,39.23a3,3,0,0,1-.21,1.12,2.78,2.78,0,0,1-1.46,1.53,2.73,2.73,0,0,1-1.12.22,2.78,2.78,0,0,1-1.13-.22,2.47,2.47,0,0,1-.87-.62,2.81,2.81,0,0,1-.57-.91,3,3,0,0,1-.21-1.12V33.45h1l0,5.78A2.86,2.86,0,0,0,24,40a1.77,1.77,0,0,0,.34.62,1.66,1.66,0,0,0,2,.44,1.64,1.64,0,0,0,.54-.44,1.74,1.74,0,0,0,.32-.62,2.86,2.86,0,0,0,.12-.73l0-5.78h1.05Z"/><path d="M30.07,42.87V42h5.38v.88Z"/><path d="M38.5,38.5V42H37.43V33.45h2.5a4.45,4.45,0,0,1,1.12.17,2.83,2.83,0,0,1,.93.48,2.21,2.21,0,0,1,.62.79A2.6,2.6,0,0,1,42.82,36a2.35,2.35,0,0,1-.12.77,2.16,2.16,0,0,1-.33.62,2.37,2.37,0,0,1-.5.5,3,3,0,0,1-.65.37L43,41.92V42H41.89L40.21,38.5ZM40,37.61a2.15,2.15,0,0,0,.68-.11,1.74,1.74,0,0,0,.57-.31,1.55,1.55,0,0,0,.38-.5,1.52,1.52,0,0,0,.14-.69,1.73,1.73,0,0,0-.13-.71,1.43,1.43,0,0,0-.38-.52,1.57,1.57,0,0,0-.57-.31,2.71,2.71,0,0,0-.72-.12H38.5v3.27Z"/><path d="M45.81,39.78,45.13,42H44l2.76-8.54h.9L50.41,42H49.33l-.67-2.21Zm2.56-1-1.12-3.7-1.15,3.7Z"/><path d="M51.2,33.45h1l.61,5.89,0,.34.06-.35,1-5.88h1l1,5.88.07.35,0-.35.62-5.88h1l-1,8.54H55.55l-1-6.07-.06-.36-.06.36-1,6.07H52.23Z"/><path d="M60.57,39.58,60.1,42h-.84l.47-2.41h-1.4v-.8h1.55l.4-2.07H58.77v-.82h1.67l.48-2.44h.84l-.48,2.44h1.55l.48-2.44h.84l-.48,2.44h1.2v.82H63.51l-.41,2.07h1.33v.8H63L62.48,42h-.84l.47-2.41Zm1.69-.8.41-2.07H61.12l-.4,2.07Z"/><path d="M71.29,41.29a2.79,2.79,0,0,1-.46.33,3.16,3.16,0,0,1-.89.37,3.65,3.65,0,0,1-1,.11,3,3,0,0,1-1-.16,2.88,2.88,0,0,1-1.4-1.07,3.27,3.27,0,0,1-.44-.8,4.08,4.08,0,0,1-.28-.9,5,5,0,0,1-.09-1v-1a6.09,6.09,0,0,1,.08-.95,5.42,5.42,0,0,1,.24-.9,3.88,3.88,0,0,1,.42-.81,2.8,2.8,0,0,1,.59-.65,2.49,2.49,0,0,1,.77-.42,2.7,2.7,0,0,1,1-.16,3.21,3.21,0,0,1,1.1.18,2.53,2.53,0,0,1,.88.53,2.71,2.71,0,0,1,.61.83A3.3,3.3,0,0,1,71.7,36H70.63a3.48,3.48,0,0,0-.2-.69,1.81,1.81,0,0,0-.35-.53,1.58,1.58,0,0,0-.53-.35,1.76,1.76,0,0,0-.71-.13,1.84,1.84,0,0,0-.69.13,1.73,1.73,0,0,0-.52.36,2,2,0,0,0-.37.52,3.8,3.8,0,0,0-.24.62,5.13,5.13,0,0,0-.17,1.33v1a5.14,5.14,0,0,0,.05.66,5,5,0,0,0,.16.67,3.14,3.14,0,0,0,.27.62,2.06,2.06,0,0,0,.4.52,1.58,1.58,0,0,0,.53.35,1.67,1.67,0,0,0,.69.14,3.76,3.76,0,0,0,.47,0,2.46,2.46,0,0,0,.47-.1,2.35,2.35,0,0,0,.43-.19,1.08,1.08,0,0,0,.33-.31V38.65H68.93v-.91h2.76l0,3.13A4.16,4.16,0,0,1,71.29,41.29Z"/><path d="M77.85,33.45h1.23L76.43,38.8l0,3.19h-1l0-3.19-2.65-5.35H74l1.94,4.29Z"/><path d="M83,35.56a.79.79,0,0,1,.64-.25.82.82,0,0,1,.64.24.87.87,0,0,1,.22.6.81.81,0,0,1-.22.58,1,1,0,0,1-1.27,0,.81.81,0,0,1-.22-.58A.87.87,0,0,1,83,35.56Zm0,5.13a.94.94,0,0,1,1.28,0,.83.83,0,0,1,.22.59.79.79,0,0,1-.22.58.83.83,0,0,1-.64.24.79.79,0,0,1-.63-.24.81.81,0,0,1-.22-.58A.87.87,0,0,1,83,40.69Z"/><path d="M93,40.17a2.75,2.75,0,0,1-.54,1,2.23,2.23,0,0,1-.86.66,3.19,3.19,0,0,1-2.33,0,2.09,2.09,0,0,1-.87-.66,2.91,2.91,0,0,1-.55-1,5.31,5.31,0,0,1-.19-1.45v-2a5.23,5.23,0,0,1,.19-1.44,3,3,0,0,1,.55-1.06,2.23,2.23,0,0,1,.86-.66,3.07,3.07,0,0,1,2.33,0,2.34,2.34,0,0,1,.87.66A2.79,2.79,0,0,1,93,35.28a4.88,4.88,0,0,1,.19,1.44v2A5,5,0,0,1,93,40.17ZM92,36a3.62,3.62,0,0,0-.17-.75,1.45,1.45,0,0,0-.33-.54,1.23,1.23,0,0,0-.49-.34,1.92,1.92,0,0,0-.67-.11,1.83,1.83,0,0,0-.68.12,1.37,1.37,0,0,0-.5.35,1.91,1.91,0,0,0-.37.74,4.1,4.1,0,0,0-.12,1v2Zm0,1.78V37l-3.32,2.54a2.93,2.93,0,0,0,.19.75,1.63,1.63,0,0,0,.35.54,1.5,1.5,0,0,0,.48.3,1.83,1.83,0,0,0,.64.1,1.67,1.67,0,0,0,.65-.11,1.27,1.27,0,0,0,.49-.32,1.68,1.68,0,0,0,.39-.75A3.92,3.92,0,0,0,92.06,39Z"/><path d="M97.09,40.69a.94.94,0,0,1,1.28,0,.83.83,0,0,1,.22.59.79.79,0,0,1-.22.58.83.83,0,0,1-.64.24.79.79,0,0,1-.63-.24.81.81,0,0,1-.22-.58A.87.87,0,0,1,97.09,40.69Z"/><path d="M107.36,40.17a2.88,2.88,0,0,1-.53,1,2.34,2.34,0,0,1-.87.66,2.82,2.82,0,0,1-1.16.22,2.91,2.91,0,0,1-1.17-.22,2.15,2.15,0,0,1-.87-.66,2.91,2.91,0,0,1-.55-1,5.33,5.33,0,0,1-.18-1.45v-2a5.25,5.25,0,0,1,.18-1.44,3,3,0,0,1,.55-1.06,2.23,2.23,0,0,1,.86-.66,2.87,2.87,0,0,1,1.17-.23,2.94,2.94,0,0,1,1.17.23,2.34,2.34,0,0,1,.87.66,2.93,2.93,0,0,1,.53,1.06,4.88,4.88,0,0,1,.19,1.44v2A5,5,0,0,1,107.36,40.17ZM106.44,36a3.07,3.07,0,0,0-.17-.75,1.58,1.58,0,0,0-.32-.54,1.39,1.39,0,0,0-.49-.34,2,2,0,0,0-.67-.11,1.85,1.85,0,0,0-.69.12,1.46,1.46,0,0,0-.5.35,1.9,1.9,0,0,0-.36.74,4.1,4.1,0,0,0-.12,1v2Zm0,1.78V37l-3.31,2.54a2.58,2.58,0,0,0,.18.75,1.63,1.63,0,0,0,.35.54,1.44,1.44,0,0,0,.49.3,1.74,1.74,0,0,0,.63.1,1.67,1.67,0,0,0,.65-.11,1.2,1.2,0,0,0,.49-.32,1.79,1.79,0,0,0,.4-.75,4.37,4.37,0,0,0,.12-1.09Z"/><path d="M111.27,42h-1.14l3.52-7.59H109v-.95h5.77v.61Z"/><path d="M121.77,40.17a3.06,3.06,0,0,1-.54,1,2.31,2.31,0,0,1-.86.66,2.87,2.87,0,0,1-1.17.22,2.94,2.94,0,0,1-1.17-.22,2.15,2.15,0,0,1-.87-.66,2.75,2.75,0,0,1-.54-1,5,5,0,0,1-.19-1.45v-2a4.88,4.88,0,0,1,.19-1.44,2.79,2.79,0,0,1,.54-1.06,2.27,2.27,0,0,1,.87-.66,2.82,2.82,0,0,1,1.16-.23,2.87,2.87,0,0,1,1.17.23,2.34,2.34,0,0,1,.87.66,3.11,3.11,0,0,1,.54,1.06,5.25,5.25,0,0,1,.18,1.44v2A5.33,5.33,0,0,1,121.77,40.17ZM120.84,36a3.07,3.07,0,0,0-.17-.75,1.44,1.44,0,0,0-.32-.54,1.31,1.31,0,0,0-.49-.34,2,2,0,0,0-.67-.11,1.76,1.76,0,0,0-.68.12,1.41,1.41,0,0,0-.51.35,1.9,1.9,0,0,0-.36.74,4.1,4.1,0,0,0-.12,1v2Zm0,1.78V37l-3.31,2.54a2.57,2.57,0,0,0,.19.75,1.49,1.49,0,0,0,.35.54,1.31,1.31,0,0,0,.48.3,1.77,1.77,0,0,0,.63.1,1.69,1.69,0,0,0,.66-.11,1.23,1.23,0,0,0,.48-.32,1.79,1.79,0,0,0,.4-.75,4.37,4.37,0,0,0,.12-1.09Z"/><path d="M126.27,42.93a3,3,0,0,1-.74,1l-.68-.37a2.64,2.64,0,0,0,.4-.87,3.83,3.83,0,0,0,.12-1v-1h1.18v1A2.83,2.83,0,0,1,126.27,42.93Z"/><path d="M136.17,40.17a3.06,3.06,0,0,1-.54,1,2.23,2.23,0,0,1-.86.66,3.19,3.19,0,0,1-2.33,0,2.12,2.12,0,0,1-.88-.66,2.9,2.9,0,0,1-.54-1,5,5,0,0,1-.19-1.45v-2a4.88,4.88,0,0,1,.19-1.44,2.94,2.94,0,0,1,.54-1.06,2.34,2.34,0,0,1,.87-.66,3.07,3.07,0,0,1,2.33,0,2.34,2.34,0,0,1,.87.66,3.11,3.11,0,0,1,.54,1.06,5.23,5.23,0,0,1,.19,1.44v2A5.31,5.31,0,0,1,136.17,40.17ZM135.24,36a3.09,3.09,0,0,0-.16-.75,1.45,1.45,0,0,0-.33-.54,1.23,1.23,0,0,0-.49-.34,2,2,0,0,0-.67-.11,1.79,1.79,0,0,0-.68.12,1.29,1.29,0,0,0-.5.35,1.78,1.78,0,0,0-.37.74,4.1,4.1,0,0,0-.12,1v2Zm0,1.78V37L132,39.53a2.93,2.93,0,0,0,.19.75,1.49,1.49,0,0,0,.35.54,1.31,1.31,0,0,0,.48.3,1.81,1.81,0,0,0,.63.1,1.69,1.69,0,0,0,.66-.11,1.34,1.34,0,0,0,.49-.32,1.78,1.78,0,0,0,.39-.75,4.34,4.34,0,0,0,.13-1.09Z"/><path d="M140.3,40.69a.81.81,0,0,1,.64-.25.81.81,0,0,1,.86.84.79.79,0,0,1-.22.58,1,1,0,0,1-1.28,0,.84.84,0,0,1-.21-.58A.87.87,0,0,1,140.3,40.69Z"/><path d="M150.57,40.17a2.75,2.75,0,0,1-.54,1,2.23,2.23,0,0,1-.86.66,3.19,3.19,0,0,1-2.33,0,2.09,2.09,0,0,1-.87-.66,2.91,2.91,0,0,1-.55-1,5.31,5.31,0,0,1-.19-1.45v-2a5.23,5.23,0,0,1,.19-1.44,3,3,0,0,1,.55-1.06,2.23,2.23,0,0,1,.86-.66,3.07,3.07,0,0,1,2.33,0,2.34,2.34,0,0,1,.87.66,2.79,2.79,0,0,1,.54,1.06,4.88,4.88,0,0,1,.19,1.44v2A5,5,0,0,1,150.57,40.17ZM149.65,36a3.62,3.62,0,0,0-.17-.75,1.45,1.45,0,0,0-.33-.54,1.23,1.23,0,0,0-.49-.34,1.92,1.92,0,0,0-.67-.11,1.83,1.83,0,0,0-.68.12,1.37,1.37,0,0,0-.5.35,1.91,1.91,0,0,0-.37.74,4.1,4.1,0,0,0-.12,1v2Zm0,1.78V37l-3.32,2.54a2.93,2.93,0,0,0,.19.75,1.63,1.63,0,0,0,.35.54,1.31,1.31,0,0,0,.48.3,1.81,1.81,0,0,0,.63.1,1.69,1.69,0,0,0,.66-.11,1.34,1.34,0,0,0,.49-.32,1.68,1.68,0,0,0,.39-.75,3.92,3.92,0,0,0,.13-1.09Z"/><path d="M154.47,42h-1.13l3.52-7.59h-4.62v-.95H158v.61Z"/><path d="M165,40.17a2.75,2.75,0,0,1-.54,1,2.23,2.23,0,0,1-.86.66,3.19,3.19,0,0,1-2.33,0,2.15,2.15,0,0,1-.87-.66,2.91,2.91,0,0,1-.55-1,5.33,5.33,0,0,1-.18-1.45v-2a5.25,5.25,0,0,1,.18-1.44,3,3,0,0,1,.55-1.06,2.23,2.23,0,0,1,.86-.66,3.07,3.07,0,0,1,2.33,0,2.19,2.19,0,0,1,.87.66,2.79,2.79,0,0,1,.54,1.06,4.88,4.88,0,0,1,.19,1.44v2A5,5,0,0,1,165,40.17ZM164.05,36a3.07,3.07,0,0,0-.17-.75,1.58,1.58,0,0,0-.32-.54,1.39,1.39,0,0,0-.49-.34,2,2,0,0,0-.67-.11,1.85,1.85,0,0,0-.69.12,1.46,1.46,0,0,0-.5.35,1.9,1.9,0,0,0-.36.74,4.1,4.1,0,0,0-.12,1v2Zm0,1.78V37l-3.32,2.54a2.93,2.93,0,0,0,.19.75,1.63,1.63,0,0,0,.35.54,1.5,1.5,0,0,0,.48.3,1.83,1.83,0,0,0,.64.1,1.67,1.67,0,0,0,.65-.11,1.27,1.27,0,0,0,.49-.32A1.79,1.79,0,0,0,164,40a4.37,4.37,0,0,0,.12-1.09Z"/><path d="M169.48,42.93a3,3,0,0,1-.74,1l-.68-.37a2.64,2.64,0,0,0,.4-.87,3.83,3.83,0,0,0,.12-1v-1h1.17v1A3,3,0,0,1,169.48,42.93Z"/><path d="M174.47,38.7v-.89H179v.89Z"/><path d="M186.58,40.17a3.06,3.06,0,0,1-.54,1,2.31,2.31,0,0,1-.86.66,2.87,2.87,0,0,1-1.17.22,2.94,2.94,0,0,1-1.17-.22,2.15,2.15,0,0,1-.87-.66,2.75,2.75,0,0,1-.54-1,5,5,0,0,1-.19-1.45v-2a4.88,4.88,0,0,1,.19-1.44,2.79,2.79,0,0,1,.54-1.06,2.27,2.27,0,0,1,.87-.66,3.07,3.07,0,0,1,2.33,0,2.34,2.34,0,0,1,.87.66,3.11,3.11,0,0,1,.54,1.06,5.25,5.25,0,0,1,.18,1.44v2A5.33,5.33,0,0,1,186.58,40.17ZM185.65,36a3.07,3.07,0,0,0-.17-.75,1.44,1.44,0,0,0-.32-.54,1.31,1.31,0,0,0-.49-.34,2,2,0,0,0-.67-.11,1.76,1.76,0,0,0-.68.12,1.29,1.29,0,0,0-.5.35,1.78,1.78,0,0,0-.37.74,4.1,4.1,0,0,0-.12,1v2Zm0,1.78V37l-3.31,2.54a2.57,2.57,0,0,0,.19.75,1.49,1.49,0,0,0,.35.54,1.31,1.31,0,0,0,.48.3,1.81,1.81,0,0,0,.63.1,1.69,1.69,0,0,0,.66-.11,1.23,1.23,0,0,0,.48-.32,1.79,1.79,0,0,0,.4-.75,4.37,4.37,0,0,0,.12-1.09Z"/><path d="M190.71,40.69a.81.81,0,0,1,.64-.25.83.83,0,0,1,.64.25.88.88,0,0,1,.22.59.83.83,0,0,1-.22.58.84.84,0,0,1-.64.24.82.82,0,0,1-.64-.24.84.84,0,0,1-.21-.58A.87.87,0,0,1,190.71,40.69Z"/><path d="M201,40.17a3.06,3.06,0,0,1-.54,1,2.23,2.23,0,0,1-.86.66,3.19,3.19,0,0,1-2.33,0,2.12,2.12,0,0,1-.88-.66,2.9,2.9,0,0,1-.54-1,5,5,0,0,1-.19-1.45v-2a4.88,4.88,0,0,1,.19-1.44,2.94,2.94,0,0,1,.54-1.06,2.34,2.34,0,0,1,.87-.66,3.07,3.07,0,0,1,2.33,0,2.34,2.34,0,0,1,.87.66,3.11,3.11,0,0,1,.54,1.06,5.23,5.23,0,0,1,.19,1.44v2A5.31,5.31,0,0,1,201,40.17ZM200.05,36a3.09,3.09,0,0,0-.16-.75,1.45,1.45,0,0,0-.33-.54,1.23,1.23,0,0,0-.49-.34,1.92,1.92,0,0,0-.67-.11,1.79,1.79,0,0,0-.68.12,1.29,1.29,0,0,0-.5.35,1.78,1.78,0,0,0-.37.74,4.1,4.1,0,0,0-.12,1v2Zm0,1.78V37l-3.32,2.54a2.93,2.93,0,0,0,.19.75,1.63,1.63,0,0,0,.35.54,1.31,1.31,0,0,0,.48.3,1.81,1.81,0,0,0,.63.1,1.69,1.69,0,0,0,.66-.11,1.34,1.34,0,0,0,.49-.32A1.68,1.68,0,0,0,200,40a3.92,3.92,0,0,0,.13-1.09Z"/><path d="M204.88,42h-1.13l3.52-7.59h-4.62v-.95h5.77v.61Z"/><path d="M215.38,40.17a2.75,2.75,0,0,1-.54,1,2.23,2.23,0,0,1-.86.66,3.19,3.19,0,0,1-2.33,0,2.09,2.09,0,0,1-.87-.66,2.91,2.91,0,0,1-.55-1,5.31,5.31,0,0,1-.19-1.45v-2a5.23,5.23,0,0,1,.19-1.44,3,3,0,0,1,.55-1.06,2.23,2.23,0,0,1,.86-.66,3.07,3.07,0,0,1,2.33,0,2.34,2.34,0,0,1,.87.66,2.79,2.79,0,0,1,.54,1.06,4.88,4.88,0,0,1,.19,1.44v2A5,5,0,0,1,215.38,40.17ZM214.46,36a3.62,3.62,0,0,0-.17-.75,1.45,1.45,0,0,0-.33-.54,1.23,1.23,0,0,0-.49-.34,1.92,1.92,0,0,0-.67-.11,1.83,1.83,0,0,0-.68.12,1.37,1.37,0,0,0-.5.35,1.91,1.91,0,0,0-.37.74,4.1,4.1,0,0,0-.12,1v2Zm0,1.78V37l-3.32,2.54a2.93,2.93,0,0,0,.19.75,1.63,1.63,0,0,0,.35.54,1.39,1.39,0,0,0,.48.3,1.83,1.83,0,0,0,.64.1,1.67,1.67,0,0,0,.65-.11,1.27,1.27,0,0,0,.49-.32,1.68,1.68,0,0,0,.39-.75,3.92,3.92,0,0,0,.13-1.09Z"/><path d="M219,39.58,218.52,42h-.84l.47-2.41h-1.4v-.8h1.56l.4-2.07H217.2v-.82h1.67l.48-2.44h.84l-.48,2.44h1.54l.48-2.44h.84l-.48,2.44h1.2v.82h-1.36l-.4,2.07h1.32v.8h-1.47L220.91,42h-.84l.47-2.41Zm1.7-.8.4-2.07h-1.54l-.41,2.07Z"/><path d="M225.84,39.78,225.16,42h-1.09l2.76-8.54h.9L230.44,42h-1.08l-.67-2.21Zm2.56-1-1.12-3.7-1.15,3.7Z"/><path d="M237,40.51a2.7,2.7,0,0,1-.59.84,2.65,2.65,0,0,1-.87.56,3.1,3.1,0,0,1-1.12.19,2.93,2.93,0,0,1-1-.15,2.42,2.42,0,0,1-.76-.41,2.89,2.89,0,0,1-.59-.62,4.09,4.09,0,0,1-.4-.78,4.32,4.32,0,0,1-.24-.89,7.14,7.14,0,0,1-.09-.93V37.13a7.3,7.3,0,0,1,.09-.94,4.23,4.23,0,0,1,.24-.88,3.9,3.9,0,0,1,.4-.79,2.89,2.89,0,0,1,.59-.62,2.42,2.42,0,0,1,.76-.41,2.85,2.85,0,0,1,1-.15,3.1,3.1,0,0,1,1.14.19,2.46,2.46,0,0,1,.87.56,2.72,2.72,0,0,1,.58.86,3.62,3.62,0,0,1,.29,1.12h-1.08a3.79,3.79,0,0,0-.18-.72,1.92,1.92,0,0,0-.35-.59,1.38,1.38,0,0,0-.53-.39,1.68,1.68,0,0,0-.74-.15,1.59,1.59,0,0,0-.68.13,1.52,1.52,0,0,0-.51.34,2.06,2.06,0,0,0-.36.5,3.47,3.47,0,0,0-.23.61,5.13,5.13,0,0,0-.13.66c0,.23,0,.45,0,.66v1.2c0,.21,0,.43,0,.65a4.53,4.53,0,0,0,.13.66,3.29,3.29,0,0,0,.23.62,2,2,0,0,0,.35.5,1.78,1.78,0,0,0,.51.35,2.11,2.11,0,0,0,1.43,0,1.47,1.47,0,0,0,.53-.38,1.82,1.82,0,0,0,.35-.57,3.79,3.79,0,0,0,.18-.72h1.08A3.81,3.81,0,0,1,237,40.51Z"/><path d="M241.41,35.56a.77.77,0,0,1,.64-.25.83.83,0,0,1,.64.24.87.87,0,0,1,.22.6.85.85,0,0,1-.22.58.82.82,0,0,1-.64.23.76.76,0,0,1-.85-.81A.87.87,0,0,1,241.41,35.56Zm0,5.13a.81.81,0,0,1,.64-.25.83.83,0,1,1,0,1.66.82.82,0,0,1-.64-.24.84.84,0,0,1-.21-.58A.87.87,0,0,1,241.41,40.69Z"/><path d="M251.39,40.17a3.06,3.06,0,0,1-.54,1,2.31,2.31,0,0,1-.86.66,3.19,3.19,0,0,1-2.33,0,2.12,2.12,0,0,1-.88-.66,2.75,2.75,0,0,1-.54-1,5,5,0,0,1-.19-1.45v-2a4.88,4.88,0,0,1,.19-1.44,2.79,2.79,0,0,1,.54-1.06,2.27,2.27,0,0,1,.87-.66,3.07,3.07,0,0,1,2.33,0,2.34,2.34,0,0,1,.87.66,3.11,3.11,0,0,1,.54,1.06,5.23,5.23,0,0,1,.19,1.44v2A5.31,5.31,0,0,1,251.39,40.17ZM250.46,36a2.67,2.67,0,0,0-.17-.75,1.44,1.44,0,0,0-.32-.54,1.31,1.31,0,0,0-.49-.34,2,2,0,0,0-.67-.11,1.76,1.76,0,0,0-.68.12,1.29,1.29,0,0,0-.5.35,1.78,1.78,0,0,0-.37.74,4.1,4.1,0,0,0-.12,1v2Zm0,1.78V37l-3.32,2.54a2.57,2.57,0,0,0,.19.75,1.49,1.49,0,0,0,.35.54,1.31,1.31,0,0,0,.48.3,1.81,1.81,0,0,0,.63.1,1.69,1.69,0,0,0,.66-.11,1.23,1.23,0,0,0,.48-.32,1.69,1.69,0,0,0,.4-.75,4.34,4.34,0,0,0,.13-1.09Z"/><path d="M255.52,40.69a.81.81,0,0,1,.64-.25.85.85,0,0,1,.64,1.42.84.84,0,0,1-.64.24.82.82,0,0,1-.64-.24.84.84,0,0,1-.21-.58A.87.87,0,0,1,255.52,40.69Z"/><path d="M265.79,40.17a2.75,2.75,0,0,1-.54,1,2.23,2.23,0,0,1-.86.66,3.19,3.19,0,0,1-2.33,0,2.12,2.12,0,0,1-.88-.66,2.9,2.9,0,0,1-.54-1,5,5,0,0,1-.19-1.45v-2a4.88,4.88,0,0,1,.19-1.44,2.94,2.94,0,0,1,.54-1.06,2.34,2.34,0,0,1,.87-.66,3.07,3.07,0,0,1,2.33,0,2.34,2.34,0,0,1,.87.66,2.79,2.79,0,0,1,.54,1.06,4.88,4.88,0,0,1,.19,1.44v2A5,5,0,0,1,265.79,40.17ZM264.86,36a3.09,3.09,0,0,0-.16-.75,1.45,1.45,0,0,0-.33-.54,1.23,1.23,0,0,0-.49-.34,1.92,1.92,0,0,0-.67-.11,1.79,1.79,0,0,0-.68.12,1.37,1.37,0,0,0-.5.35,1.78,1.78,0,0,0-.37.74,4.1,4.1,0,0,0-.12,1v2Zm0,1.78V37l-3.32,2.54a2.93,2.93,0,0,0,.19.75,1.63,1.63,0,0,0,.35.54,1.31,1.31,0,0,0,.48.3,1.81,1.81,0,0,0,.63.1,1.69,1.69,0,0,0,.66-.11,1.34,1.34,0,0,0,.49-.32,1.68,1.68,0,0,0,.39-.75,3.92,3.92,0,0,0,.13-1.09Z"/><path d="M269.86,37.2a2.29,2.29,0,0,0,.73-.11,1.85,1.85,0,0,0,.53-.31,1.36,1.36,0,0,0,.32-.46,1.63,1.63,0,0,0,.11-.59,1.93,1.93,0,0,0-.1-.67,1.25,1.25,0,0,0-.29-.47,1.21,1.21,0,0,0-.47-.27,2,2,0,0,0-.63-.09,1.81,1.81,0,0,0-.63.1,1.44,1.44,0,0,0-.49.3,1.25,1.25,0,0,0-.31.46,1.46,1.46,0,0,0-.12.6h-1.09a2.16,2.16,0,0,1,.2-.91,2.22,2.22,0,0,1,.53-.76,2.56,2.56,0,0,1,.83-.5,3.06,3.06,0,0,1,1.08-.18,3.39,3.39,0,0,1,1,.15,2.43,2.43,0,0,1,.82.46,2.17,2.17,0,0,1,.53.76,2.8,2.8,0,0,1,.18,1,1.84,1.84,0,0,1-.07.51,1.7,1.7,0,0,1-.24.51,2,2,0,0,1-.4.47,2.25,2.25,0,0,1-.6.37,2.41,2.41,0,0,1,.7.35,1.85,1.85,0,0,1,.44.49,2.1,2.1,0,0,1,.24.56,3.05,3.05,0,0,1,.06.6,2.74,2.74,0,0,1-.2,1.06,2.25,2.25,0,0,1-.57.78,2.68,2.68,0,0,1-.86.49,3.62,3.62,0,0,1-2.13,0,2.4,2.4,0,0,1-.85-.46,2.1,2.1,0,0,1-.58-.74,2.33,2.33,0,0,1-.22-1h1.09a1.64,1.64,0,0,0,.11.6,1.33,1.33,0,0,0,.33.47,1.44,1.44,0,0,0,.51.3,2,2,0,0,0,.67.11,2,2,0,0,0,.67-.1,1.28,1.28,0,0,0,.51-.29,1.3,1.3,0,0,0,.32-.5,1.86,1.86,0,0,0,.12-.7,1.77,1.77,0,0,0-.13-.69,1.35,1.35,0,0,0-.37-.48,1.51,1.51,0,0,0-.58-.29,2.83,2.83,0,0,0-.74-.09h-.77V37.2Z"/><path d="M274.67,42v-.78l2.79-3.11c.25-.28.46-.52.63-.74a3.67,3.67,0,0,0,.4-.6,2.18,2.18,0,0,0,.22-.51,2.07,2.07,0,0,0,.06-.5,1.63,1.63,0,0,0-.1-.59,1.59,1.59,0,0,0-.29-.49,1.75,1.75,0,0,0-.48-.32,1.61,1.61,0,0,0-.63-.12,2,2,0,0,0-.74.12,1.37,1.37,0,0,0-.52.35,1.3,1.3,0,0,0-.31.55,2.27,2.27,0,0,0-.11.72H274.5a2.89,2.89,0,0,1,.19-1,2.36,2.36,0,0,1,.55-.83,2.49,2.49,0,0,1,.86-.57,3.05,3.05,0,0,1,1.17-.21,3.16,3.16,0,0,1,1.09.18,2.2,2.2,0,0,1,.81.49,2.07,2.07,0,0,1,.52.75,2.62,2.62,0,0,1,.17.94,2.46,2.46,0,0,1-.12.76,4.43,4.43,0,0,1-.35.73,8,8,0,0,1-.51.72c-.2.24-.4.47-.62.71L276,41.1h4.29V42Z"/><path d="M284.7,42.93a3,3,0,0,1-.75,1l-.67-.37a2.64,2.64,0,0,0,.4-.87,3.83,3.83,0,0,0,.12-1v-1H285v1A3,3,0,0,1,284.7,42.93Z"/><path d="M294.59,40.17a2.88,2.88,0,0,1-.53,1,2.34,2.34,0,0,1-.87.66,2.82,2.82,0,0,1-1.16.22,2.91,2.91,0,0,1-1.17-.22,2.15,2.15,0,0,1-.87-.66,2.91,2.91,0,0,1-.55-1,5.33,5.33,0,0,1-.18-1.45v-2a5.25,5.25,0,0,1,.18-1.44,3,3,0,0,1,.55-1.06,2.23,2.23,0,0,1,.86-.66,2.91,2.91,0,0,1,1.17-.23,2.94,2.94,0,0,1,1.17.23,2.34,2.34,0,0,1,.87.66,2.93,2.93,0,0,1,.53,1.06,4.88,4.88,0,0,1,.19,1.44v2A5,5,0,0,1,294.59,40.17ZM293.67,36a3.07,3.07,0,0,0-.17-.75,1.58,1.58,0,0,0-.32-.54,1.39,1.39,0,0,0-.49-.34,2,2,0,0,0-.67-.11,1.85,1.85,0,0,0-.69.12,1.46,1.46,0,0,0-.5.35,1.9,1.9,0,0,0-.36.74,4.1,4.1,0,0,0-.12,1v2Zm0,1.78V37l-3.31,2.54a2.58,2.58,0,0,0,.18.75,1.5,1.5,0,0,0,.36.54,1.31,1.31,0,0,0,.48.3,1.74,1.74,0,0,0,.63.1,1.67,1.67,0,0,0,.65-.11,1.2,1.2,0,0,0,.49-.32,1.79,1.79,0,0,0,.4-.75,4.37,4.37,0,0,0,.12-1.09Z"/><path d="M298.73,40.69a.8.8,0,0,1,.63-.25.84.84,0,0,1,.65.25.88.88,0,0,1,.22.59.8.8,0,0,1-.23.58.83.83,0,0,1-.64.24.79.79,0,0,1-.63-.24.85.85,0,0,1-.22-.58A.83.83,0,0,1,298.73,40.69Z"/><path d="M309,40.17a3.06,3.06,0,0,1-.54,1,2.31,2.31,0,0,1-.86.66,2.87,2.87,0,0,1-1.17.22,2.94,2.94,0,0,1-1.17-.22,2.15,2.15,0,0,1-.87-.66,2.75,2.75,0,0,1-.54-1,5,5,0,0,1-.19-1.45v-2a4.88,4.88,0,0,1,.19-1.44,2.79,2.79,0,0,1,.54-1.06,2.27,2.27,0,0,1,.87-.66,3.07,3.07,0,0,1,2.33,0,2.34,2.34,0,0,1,.87.66,3.11,3.11,0,0,1,.54,1.06,5.25,5.25,0,0,1,.18,1.44v2A5.33,5.33,0,0,1,309,40.17ZM308.07,36a3.07,3.07,0,0,0-.17-.75,1.44,1.44,0,0,0-.32-.54,1.31,1.31,0,0,0-.49-.34,2,2,0,0,0-.67-.11,1.76,1.76,0,0,0-.68.12,1.29,1.29,0,0,0-.5.35,1.78,1.78,0,0,0-.37.74,4.1,4.1,0,0,0-.12,1v2Zm0,1.78V37l-3.31,2.54a2.57,2.57,0,0,0,.19.75,1.49,1.49,0,0,0,.35.54,1.31,1.31,0,0,0,.48.3,1.81,1.81,0,0,0,.63.1,1.69,1.69,0,0,0,.66-.11,1.23,1.23,0,0,0,.48-.32A1.79,1.79,0,0,0,308,40a4.37,4.37,0,0,0,.12-1.09Z"/><path d="M310.67,42v-.78l2.8-3.11c.25-.28.46-.52.62-.74a3.78,3.78,0,0,0,.41-.6,2.71,2.71,0,0,0,.22-.51,2.07,2.07,0,0,0,.06-.5,1.63,1.63,0,0,0-.1-.59,1.44,1.44,0,0,0-.3-.49,1.49,1.49,0,0,0-.48-.32,1.54,1.54,0,0,0-.63-.12,2.09,2.09,0,0,0-.74.12,1.37,1.37,0,0,0-.52.35,1.41,1.41,0,0,0-.31.55,2.28,2.28,0,0,0-.1.72h-1.09a2.68,2.68,0,0,1,.19-1,2.21,2.21,0,0,1,.54-.83,2.53,2.53,0,0,1,.87-.57,3,3,0,0,1,1.16-.21,3.08,3.08,0,0,1,1.09.18,2.24,2.24,0,0,1,.82.49,2.17,2.17,0,0,1,.51.75,2.42,2.42,0,0,1,.18.94,2.21,2.21,0,0,1-.13.76,3.7,3.7,0,0,1-.34.73,6.49,6.49,0,0,1-.52.72c-.19.24-.39.47-.61.71L312,41.1h4.28V42Z"/><path d="M323.32,36.48a2,2,0,0,1-.44.65,2.55,2.55,0,0,1-.3.26l-.35.21a2.49,2.49,0,0,1,.59.35,2.05,2.05,0,0,1,.46.47,2.16,2.16,0,0,1,.29.59,2.09,2.09,0,0,1,.1.67,2.4,2.4,0,0,1-.21,1,2.08,2.08,0,0,1-.58.76,2.47,2.47,0,0,1-.86.47,3.3,3.3,0,0,1-1,.16,3.34,3.34,0,0,1-1.07-.16,2.45,2.45,0,0,1-.86-.46,2.17,2.17,0,0,1-.58-.76,2.44,2.44,0,0,1-.21-1,2.09,2.09,0,0,1,.1-.67,2.23,2.23,0,0,1,.74-1.07,2.3,2.3,0,0,1,.59-.35,2.27,2.27,0,0,1-.51-.34,2.05,2.05,0,0,1-.39-.44,1.83,1.83,0,0,1-.24-.53,2,2,0,0,1-.09-.6,2.4,2.4,0,0,1,.19-1,2,2,0,0,1,.52-.74,2.12,2.12,0,0,1,.79-.45,2.91,2.91,0,0,1,1-.16,3,3,0,0,1,1,.16,2.16,2.16,0,0,1,.8.45,2.12,2.12,0,0,1,.54.74,2.4,2.4,0,0,1,.19,1A2.11,2.11,0,0,1,323.32,36.48ZM322.47,39a1.39,1.39,0,0,0-.34-.51,1.5,1.5,0,0,0-.51-.33A1.84,1.84,0,0,0,321,38a1.78,1.78,0,0,0-.67.12,1.45,1.45,0,0,0-.84.84,2,2,0,0,0-.11.66,1.94,1.94,0,0,0,.11.66,1.51,1.51,0,0,0,.33.49,1.44,1.44,0,0,0,.51.3,2.06,2.06,0,0,0,.68.11,1.93,1.93,0,0,0,.65-.11,1.48,1.48,0,0,0,.52-.3,1.51,1.51,0,0,0,.33-.49,1.73,1.73,0,0,0,.12-.66A1.76,1.76,0,0,0,322.47,39Zm-.19-3.89a1.49,1.49,0,0,0-.29-.47,1.31,1.31,0,0,0-.46-.3,1.4,1.4,0,0,0-.58-.11,1.48,1.48,0,0,0-.57.1,1.27,1.27,0,0,0-.45.3,1.34,1.34,0,0,0-.29.46,1.7,1.7,0,0,0-.1.61,1.64,1.64,0,0,0,.1.6,1.19,1.19,0,0,0,.3.45,1.23,1.23,0,0,0,.44.3,1.73,1.73,0,0,0,1.16,0,1.37,1.37,0,0,0,.45-.3,1.19,1.19,0,0,0,.3-.45,1.64,1.64,0,0,0,.1-.6A1.41,1.41,0,0,0,322.28,35.11Z"/><path d="M327.91,42.93a3.11,3.11,0,0,1-.75,1l-.67-.37a2.86,2.86,0,0,0,.4-.87,4.35,4.35,0,0,0,.11-1v-1h1.18v1A3,3,0,0,1,327.91,42.93Z"/><path d="M337.8,40.17a2.75,2.75,0,0,1-.54,1,2.23,2.23,0,0,1-.86.66,3.19,3.19,0,0,1-2.33,0,2.09,2.09,0,0,1-.87-.66,2.91,2.91,0,0,1-.55-1,5.31,5.31,0,0,1-.19-1.45v-2a5.23,5.23,0,0,1,.19-1.44,3,3,0,0,1,.55-1.06,2.23,2.23,0,0,1,.86-.66,3.07,3.07,0,0,1,2.33,0,2.34,2.34,0,0,1,.87.66,2.79,2.79,0,0,1,.54,1.06,4.88,4.88,0,0,1,.19,1.44v2A5,5,0,0,1,337.8,40.17ZM336.88,36a3.62,3.62,0,0,0-.17-.75,1.45,1.45,0,0,0-.33-.54,1.23,1.23,0,0,0-.49-.34,1.92,1.92,0,0,0-.67-.11,1.83,1.83,0,0,0-.68.12,1.37,1.37,0,0,0-.5.35,1.91,1.91,0,0,0-.37.74,4.1,4.1,0,0,0-.12,1v2Zm0,1.78V37l-3.32,2.54a2.93,2.93,0,0,0,.19.75,1.63,1.63,0,0,0,.35.54,1.39,1.39,0,0,0,.48.3,1.83,1.83,0,0,0,.64.1,1.67,1.67,0,0,0,.65-.11,1.27,1.27,0,0,0,.49-.32,1.68,1.68,0,0,0,.39-.75A3.92,3.92,0,0,0,336.9,39Z"/><path d="M341.93,40.69a.94.94,0,0,1,1.28,0,.83.83,0,0,1,.22.59.79.79,0,0,1-.22.58.83.83,0,0,1-.64.24.79.79,0,0,1-.63-.24.81.81,0,0,1-.22-.58A.87.87,0,0,1,341.93,40.69Z"/><path d="M349.57,40.83a2.12,2.12,0,0,0,.88-.56,2.33,2.33,0,0,0,.55-.94,5,5,0,0,0,.17-1h0a3.42,3.42,0,0,1-.33.33,2.08,2.08,0,0,1-.41.27,2,2,0,0,1-.5.18,2.37,2.37,0,0,1-.61.07,2.22,2.22,0,0,1-1.09-.25,2.18,2.18,0,0,1-.76-.65,2.65,2.65,0,0,1-.44-.91,4.06,4.06,0,0,1-.14-1,3.88,3.88,0,0,1,.17-1.14,2.58,2.58,0,0,1,.5-.94,2.36,2.36,0,0,1,.82-.64,2.74,2.74,0,0,1,1.15-.23,2.52,2.52,0,0,1,1.14.24,2.56,2.56,0,0,1,.81.64,3.06,3.06,0,0,1,.58,1.17,5.2,5.2,0,0,1,.2,1.4v.39a9.68,9.68,0,0,1-.21,2,3.76,3.76,0,0,1-.91,1.77,2.89,2.89,0,0,1-1.15.76,4.93,4.93,0,0,1-1.79.29h-.11V41h.11A4.11,4.11,0,0,0,349.57,40.83Zm.46-2.69a1.54,1.54,0,0,0,.49-.26,2.4,2.4,0,0,0,.39-.39,2,2,0,0,0,.27-.5v-.35a3.81,3.81,0,0,0-.13-1,2.55,2.55,0,0,0-.36-.76,1.65,1.65,0,0,0-.52-.47,1.28,1.28,0,0,0-.63-.16,1.48,1.48,0,0,0-.68.15,1.41,1.41,0,0,0-.49.42,2.06,2.06,0,0,0-.31.63,2.9,2.9,0,0,0-.1.79,3.06,3.06,0,0,0,.09.74,2,2,0,0,0,.29.64,1.35,1.35,0,0,0,.47.45,1.31,1.31,0,0,0,.69.18A1.39,1.39,0,0,0,350,38.14Z"/><path d="M356.11,42H355l3.52-7.59h-4.62v-.95h5.77v.61Z"/><path d="M363.87,42V34.84l-2.23.85v-1l3.23-1.25H365V42Z"/><path d="M370.22,39.58,369.75,42h-.84l.47-2.41H368v-.8h1.55l.4-2.07h-1.51v-.82h1.67l.48-2.44h.84l-.48,2.44h1.55l.48-2.44h.84l-.48,2.44h1.2v.82h-1.36l-.41,2.07h1.33v.8H372.6L372.13,42h-.84l.47-2.41Zm1.7-.8.4-2.07h-1.55l-.4,2.07Z"/><path d="M378.42,37.72l1.5-4.27h1.35V42h-1.06V38.58L380.3,35l-1.58,4.59h-.62l-1.44-4.47.08,3.44V42h-1.05V33.45H377Z"/><path d="M388.14,41.29a2.79,2.79,0,0,1-.46.33,3.16,3.16,0,0,1-.89.37,3.58,3.58,0,0,1-1,.11,2.94,2.94,0,0,1-1-.16,2.8,2.8,0,0,1-.8-.43,2.86,2.86,0,0,1-.61-.64,3.27,3.27,0,0,1-.44-.8,4.67,4.67,0,0,1-.27-.9,4.32,4.32,0,0,1-.1-1v-1a6.09,6.09,0,0,1,.08-.95,5.44,5.44,0,0,1,.25-.9,3.85,3.85,0,0,1,.41-.81,2.8,2.8,0,0,1,.59-.65,2.61,2.61,0,0,1,.77-.42,2.74,2.74,0,0,1,1-.16,3.31,3.31,0,0,1,1.11.18,2.62,2.62,0,0,1,.88.53,2.53,2.53,0,0,1,.6.83,3.3,3.3,0,0,1,.28,1.08h-1.07a3.48,3.48,0,0,0-.2-.69,1.81,1.81,0,0,0-.35-.53,1.58,1.58,0,0,0-.53-.35,1.73,1.73,0,0,0-.71-.13,1.6,1.6,0,0,0-1.21.49,2,2,0,0,0-.37.52,4.59,4.59,0,0,0-.41,1.95v1a5.14,5.14,0,0,0,.05.66,5,5,0,0,0,.16.67,3.14,3.14,0,0,0,.27.62,2.06,2.06,0,0,0,.4.52,1.58,1.58,0,0,0,.53.35,1.67,1.67,0,0,0,.69.14,3.73,3.73,0,0,0,.47,0,2.46,2.46,0,0,0,.47-.1,2.35,2.35,0,0,0,.43-.19,1.08,1.08,0,0,0,.33-.31V38.65h-1.73v-.91h2.76l0,3.13A4.16,4.16,0,0,1,388.14,41.29Z"/><path d="M392.63,35.56a.79.79,0,0,1,.64-.25.82.82,0,0,1,.64.24.87.87,0,0,1,.22.6.81.81,0,0,1-.22.58,1,1,0,0,1-1.27,0,.81.81,0,0,1-.22-.58A.87.87,0,0,1,392.63,35.56Zm0,5.13a.94.94,0,0,1,1.28,0,.83.83,0,0,1,.22.59.79.79,0,0,1-.22.58.83.83,0,0,1-.64.24.79.79,0,0,1-.63-.24.81.81,0,0,1-.22-.58A.87.87,0,0,1,392.63,40.69Z"/><path d="M397.7,38.7v-.89h4.48v.89Z"/><path d="M409.81,40.17a2.75,2.75,0,0,1-.54,1,2.23,2.23,0,0,1-.86.66,3.19,3.19,0,0,1-2.33,0,2.15,2.15,0,0,1-.87-.66,2.91,2.91,0,0,1-.55-1,5.33,5.33,0,0,1-.18-1.45v-2a5.25,5.25,0,0,1,.18-1.44,3,3,0,0,1,.55-1.06,2.23,2.23,0,0,1,.86-.66,3.07,3.07,0,0,1,2.33,0,2.19,2.19,0,0,1,.87.66,2.79,2.79,0,0,1,.54,1.06,4.88,4.88,0,0,1,.19,1.44v2A5,5,0,0,1,409.81,40.17ZM408.89,36a3.07,3.07,0,0,0-.17-.75,1.58,1.58,0,0,0-.32-.54,1.39,1.39,0,0,0-.49-.34,2,2,0,0,0-.67-.11,1.85,1.85,0,0,0-.69.12,1.46,1.46,0,0,0-.5.35,1.9,1.9,0,0,0-.36.74,4.1,4.1,0,0,0-.12,1v2Zm0,1.78V37l-3.32,2.54a2.93,2.93,0,0,0,.19.75,1.63,1.63,0,0,0,.35.54,1.5,1.5,0,0,0,.48.3,1.83,1.83,0,0,0,.64.1,1.67,1.67,0,0,0,.65-.11,1.27,1.27,0,0,0,.49-.32,1.79,1.79,0,0,0,.4-.75,4.37,4.37,0,0,0,.12-1.09Z"/><path d="M413.94,40.69a.94.94,0,0,1,1.28,0,.83.83,0,0,1,.22.59.79.79,0,0,1-.22.58.83.83,0,0,1-.64.24.79.79,0,0,1-.63-.24.81.81,0,0,1-.22-.58A.87.87,0,0,1,413.94,40.69Z"/><path d="M424.22,40.17a3.06,3.06,0,0,1-.54,1,2.31,2.31,0,0,1-.86.66,2.87,2.87,0,0,1-1.17.22,2.94,2.94,0,0,1-1.17-.22,2.15,2.15,0,0,1-.87-.66,2.75,2.75,0,0,1-.54-1,5,5,0,0,1-.19-1.45v-2a4.88,4.88,0,0,1,.19-1.44,2.79,2.79,0,0,1,.54-1.06,2.23,2.23,0,0,1,.86-.66,3.09,3.09,0,0,1,2.34,0,2.34,2.34,0,0,1,.87.66,3.11,3.11,0,0,1,.54,1.06,5.25,5.25,0,0,1,.18,1.44v2A5.33,5.33,0,0,1,424.22,40.17ZM423.29,36a3.07,3.07,0,0,0-.17-.75,1.58,1.58,0,0,0-.32-.54,1.31,1.31,0,0,0-.49-.34,2,2,0,0,0-.67-.11,1.76,1.76,0,0,0-.68.12,1.41,1.41,0,0,0-.51.35,1.9,1.9,0,0,0-.36.74,4.1,4.1,0,0,0-.12,1v2Zm0,1.78V37L420,39.53a2.58,2.58,0,0,0,.18.75,1.5,1.5,0,0,0,.36.54,1.31,1.31,0,0,0,.48.3,1.77,1.77,0,0,0,.63.1,1.73,1.73,0,0,0,.66-.11,1.23,1.23,0,0,0,.48-.32,1.79,1.79,0,0,0,.4-.75,4.37,4.37,0,0,0,.12-1.09Z"/><path d="M431.33,36.48a1.94,1.94,0,0,1-.43.65,2.55,2.55,0,0,1-.3.26l-.35.21a2.7,2.7,0,0,1,.59.35,2.05,2.05,0,0,1,.46.47,2.49,2.49,0,0,1,.29.59,2.09,2.09,0,0,1,.1.67,2.4,2.4,0,0,1-.21,1,2.2,2.2,0,0,1-.58.76,2.47,2.47,0,0,1-.86.47,3.3,3.3,0,0,1-1.05.16,3.34,3.34,0,0,1-1.07-.16,2.45,2.45,0,0,1-.86-.46,2.17,2.17,0,0,1-.58-.76,2.44,2.44,0,0,1-.21-1,2.09,2.09,0,0,1,.1-.67,2,2,0,0,1,.28-.59,2.34,2.34,0,0,1,1.05-.83,2.27,2.27,0,0,1-.51-.34,1.81,1.81,0,0,1-.39-.44,1.85,1.85,0,0,1-.25-.53,2.35,2.35,0,0,1-.08-.6,2.57,2.57,0,0,1,.18-1A2.08,2.08,0,0,1,428,33.5a3.24,3.24,0,0,1,2,0,2.16,2.16,0,0,1,.8.45,2.12,2.12,0,0,1,.54.74,2.57,2.57,0,0,1,.19,1A1.94,1.94,0,0,1,431.33,36.48ZM430.49,39a1.39,1.39,0,0,0-.34-.51,1.54,1.54,0,0,0-.52-.33A1.76,1.76,0,0,0,429,38a1.73,1.73,0,0,0-.66.12,1.45,1.45,0,0,0-.84.84,1.76,1.76,0,0,0-.11.66,1.73,1.73,0,0,0,.11.66,1.51,1.51,0,0,0,.33.49,1.44,1.44,0,0,0,.51.3,2.06,2.06,0,0,0,.68.11,2,2,0,0,0,.65-.11,1.58,1.58,0,0,0,.52-.3,1.51,1.51,0,0,0,.33-.49,1.73,1.73,0,0,0,.12-.66A1.76,1.76,0,0,0,430.49,39Zm-.19-3.89a1.35,1.35,0,0,0-.3-.47,1.27,1.27,0,0,0-.45-.3,1.4,1.4,0,0,0-.58-.11,1.57,1.57,0,0,0-.58.1,1.23,1.23,0,0,0-.44.3,1.21,1.21,0,0,0-.29.46,1.7,1.7,0,0,0-.1.61,1.64,1.64,0,0,0,.1.6,1.29,1.29,0,0,0,.29.45,1.37,1.37,0,0,0,.45.3,1.57,1.57,0,0,0,.58.1,1.48,1.48,0,0,0,.57-.1,1.31,1.31,0,0,0,.46-.3,1.17,1.17,0,0,0,.29-.45,1.64,1.64,0,0,0,.11-.6A1.59,1.59,0,0,0,430.3,35.11Z"/><path d="M435.49,37.2a2.27,2.27,0,0,0,.72-.11,1.61,1.61,0,0,0,.53-.31,1.39,1.39,0,0,0,.33-.46,1.63,1.63,0,0,0,.11-.59,2.2,2.2,0,0,0-.1-.67,1.27,1.27,0,0,0-.3-.47,1.17,1.17,0,0,0-.46-.27,2.11,2.11,0,0,0-.64-.09,1.81,1.81,0,0,0-.63.1,1.31,1.31,0,0,0-.48.3,1.27,1.27,0,0,0-.32.46,1.64,1.64,0,0,0-.11.6h-1.09a2.32,2.32,0,0,1,.19-.91,2.4,2.4,0,0,1,.54-.76,2.56,2.56,0,0,1,.83-.5,3,3,0,0,1,1.07-.18,3.41,3.41,0,0,1,1.05.15,2.43,2.43,0,0,1,.82.46,2.14,2.14,0,0,1,.52.76,2.61,2.61,0,0,1,.19,1,1.55,1.55,0,0,1-.08.51,1.67,1.67,0,0,1-.23.51,2,2,0,0,1-.41.47,2,2,0,0,1-.59.37,2.23,2.23,0,0,1,.69.35,1.73,1.73,0,0,1,.45.49,1.79,1.79,0,0,1,.23.56,2.46,2.46,0,0,1,.07.6,2.57,2.57,0,0,1-.21,1.06,2.11,2.11,0,0,1-.56.78,2.79,2.79,0,0,1-.86.49,3.38,3.38,0,0,1-1.07.16,3.32,3.32,0,0,1-1.06-.16,2.45,2.45,0,0,1-.86-.46,2.24,2.24,0,0,1-.79-1.74h1.09a1.46,1.46,0,0,0,.11.6,1.31,1.31,0,0,0,.32.47,1.58,1.58,0,0,0,.52.3,2,2,0,0,0,.67.11,2,2,0,0,0,.67-.1,1.28,1.28,0,0,0,.51-.29,1.3,1.3,0,0,0,.32-.5,1.86,1.86,0,0,0,.12-.7,1.6,1.6,0,0,0-.14-.69,1.32,1.32,0,0,0-.36-.48,1.51,1.51,0,0,0-.58-.29,2.83,2.83,0,0,0-.74-.09h-.77V37.2Z"/><path d="M445.82,40.17a3.06,3.06,0,0,1-.54,1,2.23,2.23,0,0,1-.86.66,3.19,3.19,0,0,1-2.33,0,2.12,2.12,0,0,1-.88-.66,2.9,2.9,0,0,1-.54-1,5,5,0,0,1-.19-1.45v-2a4.88,4.88,0,0,1,.19-1.44,2.94,2.94,0,0,1,.54-1.06,2.34,2.34,0,0,1,.87-.66,3.07,3.07,0,0,1,2.33,0,2.34,2.34,0,0,1,.87.66,3.11,3.11,0,0,1,.54,1.06,5.23,5.23,0,0,1,.19,1.44v2A5.31,5.31,0,0,1,445.82,40.17ZM444.89,36a3.09,3.09,0,0,0-.16-.75,1.45,1.45,0,0,0-.33-.54,1.23,1.23,0,0,0-.49-.34,1.92,1.92,0,0,0-.67-.11,1.79,1.79,0,0,0-.68.12,1.29,1.29,0,0,0-.5.35,1.78,1.78,0,0,0-.37.74,4.1,4.1,0,0,0-.12,1v2Zm0,1.78V37l-3.32,2.54a2.93,2.93,0,0,0,.19.75,1.63,1.63,0,0,0,.35.54,1.31,1.31,0,0,0,.48.3,1.81,1.81,0,0,0,.63.1,1.69,1.69,0,0,0,.66-.11,1.34,1.34,0,0,0,.49-.32,1.68,1.68,0,0,0,.39-.75,3.92,3.92,0,0,0,.13-1.09Z"/><path d="M447.5,42v-.78l2.79-3.11c.25-.28.46-.52.63-.74a4.46,4.46,0,0,0,.4-.6,2.18,2.18,0,0,0,.22-.51,2.07,2.07,0,0,0,.06-.5,1.63,1.63,0,0,0-.1-.59,1.44,1.44,0,0,0-.3-.49,1.56,1.56,0,0,0-.47-.32,1.61,1.61,0,0,0-.63-.12,2,2,0,0,0-.74.12,1.29,1.29,0,0,0-.52.35,1.43,1.43,0,0,0-.32.55,2.61,2.61,0,0,0-.1.72h-1.09a2.68,2.68,0,0,1,.19-1,2.34,2.34,0,0,1,.54-.83,2.63,2.63,0,0,1,.87-.57,3.35,3.35,0,0,1,2.25,0,2.16,2.16,0,0,1,1.33,1.24,2.42,2.42,0,0,1,.18.94,2.21,2.21,0,0,1-.13.76,3.7,3.7,0,0,1-.34.73,8,8,0,0,1-.51.72c-.2.24-.4.47-.62.71L448.8,41.1h4.28V42Z"/><path d="M460.22,40.17a2.75,2.75,0,0,1-.54,1,2.23,2.23,0,0,1-.86.66,3.19,3.19,0,0,1-2.33,0,2.09,2.09,0,0,1-.87-.66,2.91,2.91,0,0,1-.55-1,5.31,5.31,0,0,1-.19-1.45v-2a5.23,5.23,0,0,1,.19-1.44,3,3,0,0,1,.55-1.06,2.23,2.23,0,0,1,.86-.66,3.07,3.07,0,0,1,2.33,0,2.34,2.34,0,0,1,.87.66,2.79,2.79,0,0,1,.54,1.06,4.88,4.88,0,0,1,.19,1.44v2A5,5,0,0,1,460.22,40.17ZM459.3,36a3.62,3.62,0,0,0-.17-.75,1.45,1.45,0,0,0-.33-.54,1.23,1.23,0,0,0-.49-.34,1.92,1.92,0,0,0-.67-.11,1.83,1.83,0,0,0-.68.12,1.37,1.37,0,0,0-.5.35,1.91,1.91,0,0,0-.37.74,4.1,4.1,0,0,0-.12,1v2Zm0,1.78V37L456,39.53a2.93,2.93,0,0,0,.19.75,1.63,1.63,0,0,0,.35.54,1.31,1.31,0,0,0,.48.3,1.83,1.83,0,0,0,.64.1,1.67,1.67,0,0,0,.65-.11,1.27,1.27,0,0,0,.49-.32,1.68,1.68,0,0,0,.39-.75,3.92,3.92,0,0,0,.13-1.09Z"/><path d="M464.73,42.93a3,3,0,0,1-.75,1l-.67-.37a2.64,2.64,0,0,0,.4-.87,3.83,3.83,0,0,0,.12-1v-1H465v1A3,3,0,0,1,464.73,42.93Z"/><path d="M469.71,38.7v-.89h4.49v.89Z"/><path d="M481.83,40.17a3.06,3.06,0,0,1-.54,1,2.34,2.34,0,0,1-.87.66,2.82,2.82,0,0,1-1.16.22,2.94,2.94,0,0,1-1.17-.22,2.15,2.15,0,0,1-.87-.66,2.91,2.91,0,0,1-.55-1,5.33,5.33,0,0,1-.18-1.45v-2a5.25,5.25,0,0,1,.18-1.44,3,3,0,0,1,.55-1.06,2.23,2.23,0,0,1,.86-.66,2.91,2.91,0,0,1,1.17-.23,2.94,2.94,0,0,1,1.17.23,2.34,2.34,0,0,1,.87.66,3.11,3.11,0,0,1,.54,1.06,5.25,5.25,0,0,1,.18,1.44v2A5.33,5.33,0,0,1,481.83,40.17ZM480.9,36a3.07,3.07,0,0,0-.17-.75,1.58,1.58,0,0,0-.32-.54,1.39,1.39,0,0,0-.49-.34,2,2,0,0,0-.67-.11,1.85,1.85,0,0,0-.69.12,1.46,1.46,0,0,0-.5.35,1.9,1.9,0,0,0-.36.74,4.1,4.1,0,0,0-.12,1v2Zm0,1.78V37l-3.31,2.54a2.58,2.58,0,0,0,.18.75,1.5,1.5,0,0,0,.36.54,1.31,1.31,0,0,0,.48.3,1.74,1.74,0,0,0,.63.1,1.76,1.76,0,0,0,.66-.11,1.23,1.23,0,0,0,.48-.32,1.79,1.79,0,0,0,.4-.75,4.37,4.37,0,0,0,.12-1.09Z"/><path d="M486,40.69a.8.8,0,0,1,.63-.25.84.84,0,0,1,.65.25.88.88,0,0,1,.22.59.8.8,0,0,1-.23.58.83.83,0,0,1-.64.24.79.79,0,0,1-.63-.24.84.84,0,0,1-.21-.58A.87.87,0,0,1,486,40.69Z"/><path d="M491.87,33.45h4.38v1.06h-3.46l-.24,2.27a3.38,3.38,0,0,1,.6-.26,2.91,2.91,0,0,1,.82-.11,2.61,2.61,0,0,1,1.06.21,2.26,2.26,0,0,1,.79.57,2.64,2.64,0,0,1,.51.9,4,4,0,0,1,.17,1.18,3.77,3.77,0,0,1-.16,1.13,2.41,2.41,0,0,1-.49.89,2.31,2.31,0,0,1-.84.6,3.07,3.07,0,0,1-1.18.21,3.53,3.53,0,0,1-1-.14,2.59,2.59,0,0,1-.82-.44,2.27,2.27,0,0,1-.59-.74,2.58,2.58,0,0,1-.29-1h1a1.65,1.65,0,0,0,.53,1.1,1.68,1.68,0,0,0,1.13.38,1.65,1.65,0,0,0,.68-.14,1.22,1.22,0,0,0,.5-.4,1.63,1.63,0,0,0,.31-.6,3.3,3.3,0,0,0,.1-.8,2.27,2.27,0,0,0-.12-.75,1.6,1.6,0,0,0-.33-.6,1.52,1.52,0,0,0-.53-.4,1.67,1.67,0,0,0-.73-.14,3,3,0,0,0-.46,0l-.36.11-.29.17c-.09.07-.19.14-.29.23l-.86-.22Z"/><path d="M500.79,40.83a2.23,2.23,0,0,0,.89-.56,2.2,2.2,0,0,0,.54-.94,4.43,4.43,0,0,0,.17-1h0a3.27,3.27,0,0,1-.32.33,2.42,2.42,0,0,1-.41.27,1.92,1.92,0,0,1-.51.18,2.3,2.3,0,0,1-.6.07,2.24,2.24,0,0,1-1.1-.25,2.27,2.27,0,0,1-.76-.65,3.07,3.07,0,0,1-.44-.91,4.06,4.06,0,0,1-.14-1,3.88,3.88,0,0,1,.17-1.14,2.74,2.74,0,0,1,.5-.94,2.4,2.4,0,0,1,.83-.64,2.74,2.74,0,0,1,1.15-.23,2.58,2.58,0,0,1,1.14.24,2.56,2.56,0,0,1,.81.64,3.06,3.06,0,0,1,.58,1.17,5.19,5.19,0,0,1,.19,1.4v.39a9.68,9.68,0,0,1-.21,2,3.74,3.74,0,0,1-.9,1.77,3,3,0,0,1-1.15.76,5,5,0,0,1-1.79.29h-.11V41h.11A4.09,4.09,0,0,0,500.79,40.83Zm.47-2.69a1.61,1.61,0,0,0,.48-.26,1.8,1.8,0,0,0,.39-.39,1.51,1.51,0,0,0,.27-.5v-.35a3.44,3.44,0,0,0-.13-1,2.54,2.54,0,0,0-.35-.76,1.8,1.8,0,0,0-.53-.47,1.23,1.23,0,0,0-.63-.16,1.44,1.44,0,0,0-.67.15,1.33,1.33,0,0,0-.49.42,1.86,1.86,0,0,0-.31.63,2.9,2.9,0,0,0-.11.79,3.06,3.06,0,0,0,.09.74,2.2,2.2,0,0,0,.29.64,1.47,1.47,0,0,0,.48.45,1.25,1.25,0,0,0,.68.18A1.44,1.44,0,0,0,501.26,38.14Z"/><path d="M508,40.83a2.23,2.23,0,0,0,1.42-1.5,4.43,4.43,0,0,0,.17-1h0a3.27,3.27,0,0,1-.32.33,2.42,2.42,0,0,1-.41.27,1.92,1.92,0,0,1-.51.18,2.57,2.57,0,0,1-1.7-.18,2.14,2.14,0,0,1-.75-.65,2.65,2.65,0,0,1-.44-.91,3.65,3.65,0,0,1-.14-1,3.88,3.88,0,0,1,.16-1.14,2.74,2.74,0,0,1,.5-.94,2.4,2.4,0,0,1,.83-.64,2.74,2.74,0,0,1,1.15-.23,2.52,2.52,0,0,1,1.14.24,2.56,2.56,0,0,1,.81.64,3.06,3.06,0,0,1,.58,1.17,5.19,5.19,0,0,1,.19,1.4v.39a9.68,9.68,0,0,1-.21,2,3.74,3.74,0,0,1-.9,1.77,3,3,0,0,1-1.15.76,5,5,0,0,1-1.79.29h-.11V41h.11A4.19,4.19,0,0,0,508,40.83Zm.46-2.69a1.61,1.61,0,0,0,.48-.26,1.8,1.8,0,0,0,.39-.39,1.51,1.51,0,0,0,.27-.5v-.35a3.44,3.44,0,0,0-.13-1,2.54,2.54,0,0,0-.35-.76,1.68,1.68,0,0,0-.53-.47,1.23,1.23,0,0,0-.63-.16,1.47,1.47,0,0,0-.67.15,1.33,1.33,0,0,0-.49.42,1.86,1.86,0,0,0-.31.63,2.9,2.9,0,0,0-.11.79,2.64,2.64,0,0,0,.1.74,2,2,0,0,0,.28.64,1.47,1.47,0,0,0,.48.45,1.25,1.25,0,0,0,.68.18A1.4,1.4,0,0,0,508.46,38.14Z"/><path d="M514.7,37.2a2.29,2.29,0,0,0,.73-.11,1.85,1.85,0,0,0,.53-.31,1.36,1.36,0,0,0,.32-.46,1.63,1.63,0,0,0,.11-.59,1.93,1.93,0,0,0-.1-.67,1.25,1.25,0,0,0-.29-.47,1.21,1.21,0,0,0-.47-.27,2,2,0,0,0-.63-.09,1.81,1.81,0,0,0-.63.1,1.44,1.44,0,0,0-.49.3,1.25,1.25,0,0,0-.31.46,1.46,1.46,0,0,0-.12.6h-1.09a2.16,2.16,0,0,1,.2-.91A2.22,2.22,0,0,1,513,34a2.56,2.56,0,0,1,.83-.5,3.06,3.06,0,0,1,1.08-.18,3.39,3.39,0,0,1,1,.15,2.43,2.43,0,0,1,.82.46,2.17,2.17,0,0,1,.53.76,2.8,2.8,0,0,1,.18,1,1.84,1.84,0,0,1-.07.51,1.7,1.7,0,0,1-.24.51,2,2,0,0,1-.4.47,2.25,2.25,0,0,1-.6.37,2.41,2.41,0,0,1,.7.35,1.85,1.85,0,0,1,.44.49,2.1,2.1,0,0,1,.24.56,3.05,3.05,0,0,1,.06.6,2.74,2.74,0,0,1-.2,1.06,2.25,2.25,0,0,1-.57.78,2.68,2.68,0,0,1-.86.49,3.62,3.62,0,0,1-2.13,0,2.4,2.4,0,0,1-.85-.46,2.1,2.1,0,0,1-.58-.74,2.33,2.33,0,0,1-.22-1h1.09a1.64,1.64,0,0,0,.11.6,1.33,1.33,0,0,0,.33.47,1.44,1.44,0,0,0,.51.3,2,2,0,0,0,.67.11,2,2,0,0,0,.67-.1,1.28,1.28,0,0,0,.51-.29,1.3,1.3,0,0,0,.32-.5,1.86,1.86,0,0,0,.12-.7,1.77,1.77,0,0,0-.13-.69,1.35,1.35,0,0,0-.37-.48,1.51,1.51,0,0,0-.58-.29,2.83,2.83,0,0,0-.74-.09h-.77V37.2Z"/><path d="M525.45,39.12V40h-1.19v2h-1.09V40h-3.89v-.63l3.82-5.92h1.16v5.67Zm-2.28,0V34.9l-.17.32-2.51,3.9Z"/><path d="M532.23,40.17a2.75,2.75,0,0,1-.54,1,2.23,2.23,0,0,1-.86.66,3.19,3.19,0,0,1-2.33,0,2.15,2.15,0,0,1-.87-.66,2.91,2.91,0,0,1-.55-1,5.33,5.33,0,0,1-.18-1.45v-2a5.25,5.25,0,0,1,.18-1.44,3,3,0,0,1,.55-1.06,2.23,2.23,0,0,1,.86-.66,3.07,3.07,0,0,1,2.33,0,2.19,2.19,0,0,1,.87.66,2.79,2.79,0,0,1,.54,1.06,4.88,4.88,0,0,1,.19,1.44v2A5,5,0,0,1,532.23,40.17ZM531.31,36a3.07,3.07,0,0,0-.17-.75,1.58,1.58,0,0,0-.32-.54,1.39,1.39,0,0,0-.49-.34,2,2,0,0,0-.67-.11,1.85,1.85,0,0,0-.69.12,1.46,1.46,0,0,0-.5.35,1.9,1.9,0,0,0-.36.74,4.1,4.1,0,0,0-.12,1v2Zm0,1.78V37L528,39.53a2.93,2.93,0,0,0,.19.75,1.63,1.63,0,0,0,.35.54,1.5,1.5,0,0,0,.48.3,1.83,1.83,0,0,0,.64.1,1.67,1.67,0,0,0,.65-.11,1.27,1.27,0,0,0,.49-.32,1.79,1.79,0,0,0,.4-.75,4.37,4.37,0,0,0,.12-1.09Z"/><path d="M536.74,42.93a3,3,0,0,1-.74,1l-.68-.37a2.64,2.64,0,0,0,.4-.87,3.83,3.83,0,0,0,.12-1v-1H537v1A3,3,0,0,1,536.74,42.93Z"/><path d="M541.73,38.7v-.89h4.48v.89Z"/><path d="M553.84,40.17a3.06,3.06,0,0,1-.54,1,2.31,2.31,0,0,1-.86.66,2.87,2.87,0,0,1-1.17.22,2.94,2.94,0,0,1-1.17-.22,2.15,2.15,0,0,1-.87-.66,2.75,2.75,0,0,1-.54-1,5,5,0,0,1-.19-1.45v-2a4.88,4.88,0,0,1,.19-1.44,2.79,2.79,0,0,1,.54-1.06,2.27,2.27,0,0,1,.87-.66,3.07,3.07,0,0,1,2.33,0,2.34,2.34,0,0,1,.87.66,3.11,3.11,0,0,1,.54,1.06,5.25,5.25,0,0,1,.18,1.44v2A5.33,5.33,0,0,1,553.84,40.17ZM552.91,36a3.07,3.07,0,0,0-.17-.75,1.44,1.44,0,0,0-.32-.54,1.31,1.31,0,0,0-.49-.34,2,2,0,0,0-.67-.11,1.76,1.76,0,0,0-.68.12,1.29,1.29,0,0,0-.5.35,1.78,1.78,0,0,0-.37.74,4.1,4.1,0,0,0-.12,1v2Zm0,1.78V37l-3.31,2.54a2.57,2.57,0,0,0,.19.75,1.49,1.49,0,0,0,.35.54,1.31,1.31,0,0,0,.48.3,1.81,1.81,0,0,0,.63.1,1.69,1.69,0,0,0,.66-.11,1.23,1.23,0,0,0,.48-.32,1.79,1.79,0,0,0,.4-.75,4.37,4.37,0,0,0,.12-1.09Z"/><path d="M558,40.69a.81.81,0,0,1,.64-.25.83.83,0,0,1,.64.25.88.88,0,0,1,.22.59.83.83,0,0,1-.22.58.84.84,0,0,1-.64.24.82.82,0,0,1-.64-.24.84.84,0,0,1-.21-.58A.87.87,0,0,1,558,40.69Z"/><path d="M564.94,42H563.8l3.53-7.59h-4.62v-.95h5.76v.61Z"/><path d="M572.14,42H571l3.53-7.59h-4.62v-.95h5.76v.61Z"/><path d="M580,40.83a2.23,2.23,0,0,0,1.42-1.5,4.43,4.43,0,0,0,.17-1h0a3.27,3.27,0,0,1-.32.33,2.42,2.42,0,0,1-.41.27,2,2,0,0,1-.5.18,2.37,2.37,0,0,1-.61.07,2.22,2.22,0,0,1-1.85-.9,2.65,2.65,0,0,1-.44-.91,3.65,3.65,0,0,1-.14-1,3.88,3.88,0,0,1,.16-1.14,2.76,2.76,0,0,1,.51-.94,2.28,2.28,0,0,1,.82-.64,2.74,2.74,0,0,1,1.15-.23,2.52,2.52,0,0,1,1.14.24,2.56,2.56,0,0,1,.81.64,3.06,3.06,0,0,1,.58,1.17,5.19,5.19,0,0,1,.19,1.4v.39a9.68,9.68,0,0,1-.21,2,3.74,3.74,0,0,1-.9,1.77,3,3,0,0,1-1.15.76,5,5,0,0,1-1.79.29h-.11V41h.11A4.15,4.15,0,0,0,580,40.83Zm.46-2.69a1.49,1.49,0,0,0,.48-.26,1.8,1.8,0,0,0,.39-.39,1.74,1.74,0,0,0,.28-.5v-.35a3.42,3.42,0,0,0-.14-1,2.32,2.32,0,0,0-.35-.76,1.77,1.77,0,0,0-.52-.47,1.28,1.28,0,0,0-.63-.16,1.48,1.48,0,0,0-.68.15,1.41,1.41,0,0,0-.49.42,1.86,1.86,0,0,0-.31.63,2.9,2.9,0,0,0-.11.79,2.64,2.64,0,0,0,.1.74,2.18,2.18,0,0,0,.28.64,1.47,1.47,0,0,0,.48.45,1.28,1.28,0,0,0,.68.18A1.4,1.4,0,0,0,580.47,38.14Z"/><path d="M589.76,36.48a1.83,1.83,0,0,1-.44.65,2.55,2.55,0,0,1-.3.26l-.35.21a2.55,2.55,0,0,1,.6.35,2.28,2.28,0,0,1,.46.47A2.49,2.49,0,0,1,590,39a2.41,2.41,0,0,1,.1.67,2.26,2.26,0,0,1-.22,1,2.17,2.17,0,0,1-.57.76,2.66,2.66,0,0,1-.86.47,3.32,3.32,0,0,1-1.06.16,3.38,3.38,0,0,1-1.07-.16,2.54,2.54,0,0,1-.86-.46,2.3,2.3,0,0,1-.58-.76,2.44,2.44,0,0,1-.21-1,2.41,2.41,0,0,1,.1-.67,2.23,2.23,0,0,1,.74-1.07,2.49,2.49,0,0,1,.59-.35,2.27,2.27,0,0,1-.51-.34,1.77,1.77,0,0,1-.38-.44,1.85,1.85,0,0,1-.25-.53,2,2,0,0,1-.09-.6,2.4,2.4,0,0,1,.19-1,2.07,2.07,0,0,1,.52-.74,2.12,2.12,0,0,1,.79-.45,3,3,0,0,1,1-.16,3,3,0,0,1,1,.16,2.33,2.33,0,0,1,.8.45,2.22,2.22,0,0,1,.53.74,2.4,2.4,0,0,1,.19,1A1.94,1.94,0,0,1,589.76,36.48ZM588.91,39a1.5,1.5,0,0,0-.33-.51,1.65,1.65,0,0,0-.52-.33,1.9,1.9,0,0,0-1.33,0,1.5,1.5,0,0,0-.51.33,1.34,1.34,0,0,0-.32.51,1.76,1.76,0,0,0-.12.66,1.73,1.73,0,0,0,.12.66,1.34,1.34,0,0,0,.32.49,1.44,1.44,0,0,0,.51.3,2.11,2.11,0,0,0,.68.11,2,2,0,0,0,.66-.11,1.44,1.44,0,0,0,.51-.3,1.51,1.51,0,0,0,.33-.49,1.73,1.73,0,0,0,.12-.66A1.76,1.76,0,0,0,588.91,39Zm-.18-3.89a1.51,1.51,0,0,0-.3-.47,1.31,1.31,0,0,0-.46-.3,1.36,1.36,0,0,0-.58-.11,1.48,1.48,0,0,0-.57.1,1.37,1.37,0,0,0-.45.3,1.34,1.34,0,0,0-.29.46,2,2,0,0,0-.1.61,1.89,1.89,0,0,0,.1.6,1.38,1.38,0,0,0,.75.75,1.5,1.5,0,0,0,.58.1,1.56,1.56,0,0,0,.57-.1,1.31,1.31,0,0,0,.46-.3,1.29,1.29,0,0,0,.29-.45,1.64,1.64,0,0,0,.1-.6A1.59,1.59,0,0,0,588.73,35.11Z"/><path d="M597,40.17a2.75,2.75,0,0,1-.54,1,2.23,2.23,0,0,1-.86.66,2.82,2.82,0,0,1-1.16.22,2.91,2.91,0,0,1-1.17-.22,2.15,2.15,0,0,1-.87-.66,2.91,2.91,0,0,1-.55-1,5.33,5.33,0,0,1-.18-1.45v-2a5.25,5.25,0,0,1,.18-1.44,3,3,0,0,1,.55-1.06,2.23,2.23,0,0,1,.86-.66,3.07,3.07,0,0,1,2.33,0,2.19,2.19,0,0,1,.87.66,2.79,2.79,0,0,1,.54,1.06,4.88,4.88,0,0,1,.19,1.44v2A5,5,0,0,1,597,40.17ZM596.12,36a3.07,3.07,0,0,0-.17-.75,1.58,1.58,0,0,0-.32-.54,1.39,1.39,0,0,0-.49-.34,2,2,0,0,0-.67-.11,1.85,1.85,0,0,0-.69.12,1.46,1.46,0,0,0-.5.35,1.9,1.9,0,0,0-.36.74,4.1,4.1,0,0,0-.12,1v2Zm0,1.78V37l-3.31,2.54a2.58,2.58,0,0,0,.18.75,1.63,1.63,0,0,0,.35.54,1.5,1.5,0,0,0,.48.3,1.83,1.83,0,0,0,.64.1,1.67,1.67,0,0,0,.65-.11,1.2,1.2,0,0,0,.49-.32A1.79,1.79,0,0,0,596,40a4.37,4.37,0,0,0,.12-1.09Z"/><path d="M604.25,40.17a3.06,3.06,0,0,1-.54,1,2.34,2.34,0,0,1-.87.66,2.82,2.82,0,0,1-1.16.22,2.94,2.94,0,0,1-1.17-.22,2.15,2.15,0,0,1-.87-.66,2.91,2.91,0,0,1-.55-1,5.33,5.33,0,0,1-.18-1.45v-2a5.25,5.25,0,0,1,.18-1.44,3,3,0,0,1,.55-1.06,2.23,2.23,0,0,1,.86-.66,2.91,2.91,0,0,1,1.17-.23,2.94,2.94,0,0,1,1.17.23,2.34,2.34,0,0,1,.87.66,3.11,3.11,0,0,1,.54,1.06,5.25,5.25,0,0,1,.18,1.44v2A5.33,5.33,0,0,1,604.25,40.17ZM603.32,36a3.07,3.07,0,0,0-.17-.75,1.58,1.58,0,0,0-.32-.54,1.39,1.39,0,0,0-.49-.34,2,2,0,0,0-.67-.11,1.85,1.85,0,0,0-.69.12,1.46,1.46,0,0,0-.5.35,1.9,1.9,0,0,0-.36.74,4.1,4.1,0,0,0-.12,1v2Zm0,1.78V37L600,39.53a2.58,2.58,0,0,0,.18.75,1.5,1.5,0,0,0,.36.54,1.31,1.31,0,0,0,.48.3,1.74,1.74,0,0,0,.63.1,1.67,1.67,0,0,0,.65-.11,1.2,1.2,0,0,0,.49-.32,1.79,1.79,0,0,0,.4-.75,4.37,4.37,0,0,0,.12-1.09Z"/><text class="cls-3" transform="translate(17.35 22.76)">lineHeader</text><text class="cls-4" transform="translate(60.42 22.76)">dataName</text><text class="cls-4" transform="translate(218.21 22.76)">dataName</text><text class="cls-4" transform="translate(369.91 22.76)">dataName</text><text class="cls-5" transform="translate(136.17 22.76)">lineData</text><text class="cls-5" transform="translate(290.27 22.76)">lineData</text><text class="cls-5" transform="translate(484.98 22.76)">lineData</text><polyline class="cls-6" points="65.84 30.5 65.84 25.52 79.89 25.52 79.89 30.5"/><polyline class="cls-6" points="223.63 30.5 223.63 25.52 237.68 25.52 237.68 30.5"/><polyline class="cls-6" points="375.34 30.5 375.34 25.52 389.38 25.52 389.38 30.5"/><polyline class="cls-7" points="87.14 30.5 87.14 25.52 215.73 25.52 215.73 30.5"/><polyline class="cls-7" points="245.86 30.5 245.86 25.52 365.22 25.52 365.22 30.5"/><polyline class="cls-7" points="396.03 30.5 396.03 25.52 604.46 25.52 604.46 30.5"/><polyline class="cls-8" points="7.56 30.5 7.56 25.52 58.16 25.52 58.16 30.5"/></g></svg>